<svg width="65" height="67" viewBox="0 0 65 67" fill="none" xmlns="http://www.w3.org/2000/svg">
<path d="M32.5 0C14.5789 0 0 15.0278 0 33.4994C0 51.9716 14.5789 67 32.5 67C50.42 67 65 51.9716 65 33.4994C65 15.0278 50.42 0 32.5 0ZM41.6854 21.1475C41.6854 21.3061 41.6243 21.4583 41.5155 21.5704C41.4066 21.6826 41.2591 21.7456 41.1052 21.7456L37.4107 21.748C34.973 21.748 34.5274 22.7265 34.5274 24.6536V28.6512H40.8638C41.0303 28.6512 41.1893 28.7254 41.299 28.8546C41.4086 28.9838 41.4597 29.1554 41.4394 29.3259L40.5371 36.5228C40.519 36.667 40.4506 36.7994 40.3447 36.8954C40.2388 36.9914 40.1025 37.0444 39.9615 37.0443H34.5274V54.9149C34.5274 55.0735 34.4663 55.2256 34.3574 55.3378C34.2486 55.4499 34.101 55.513 33.9472 55.513H26.7381C26.5842 55.513 26.4366 55.4499 26.3278 55.3378C26.219 55.2256 26.1578 55.0735 26.1578 54.9149V37.0443H20.7063C20.5525 37.0443 20.4049 36.9813 20.296 36.8691C20.1872 36.757 20.1261 36.6049 20.1261 36.4462V29.2493C20.1261 29.0907 20.1872 28.9386 20.296 28.8264C20.4049 28.7142 20.5525 28.6512 20.7063 28.6512H26.1578V23.9412C26.1578 17.7031 29.8204 13.8286 35.7175 13.8286C38.2526 13.8286 40.493 14.023 41.1812 14.1169C41.3206 14.1359 41.4487 14.2065 41.5414 14.3155C41.6342 14.4245 41.6854 14.5646 41.6854 14.7096V21.1475Z" fill="#231F20"/>
</svg>
