<svg width="65" height="68" viewBox="0 0 65 68" fill="none" xmlns="http://www.w3.org/2000/svg">
<g clip-path="url(#clip0_841_4027)">
<path d="M45.6962 23.5555C45.4142 22.7913 44.9823 22.0975 44.4284 21.5186C43.8744 20.9397 43.2108 20.4886 42.48 20.1944C41.4739 19.8046 40.4112 19.5985 39.3384 19.5853C37.5543 19.5003 37.0194 19.479 32.4998 19.479C27.9803 19.479 27.4454 19.5003 25.6613 19.5853C24.5873 19.5981 23.5234 19.8042 22.5162 20.1944C21.7858 20.4895 21.1226 20.9413 20.5693 21.5208C20.0159 22.1003 19.5847 22.7946 19.3035 23.559C18.9308 24.6116 18.7339 25.7233 18.7212 26.8457C18.6399 28.7121 18.6196 29.2717 18.6196 33.9998C18.6196 38.728 18.6399 39.2875 18.7212 41.154C18.7335 42.2776 18.9305 43.3905 19.3035 44.4442C19.5855 45.2083 20.0174 45.9022 20.5713 46.4811C21.1252 47.0599 21.7889 47.511 22.5196 47.8053C23.5258 48.1951 24.5884 48.4012 25.6613 48.4144C27.4454 48.4994 27.9803 48.5207 32.4998 48.5207C37.0194 48.5207 37.5543 48.4994 39.3384 48.4144C40.4124 48.4016 41.4762 48.1955 42.4834 47.8053C43.2138 47.5102 43.8771 47.0584 44.4304 46.4789C44.9838 45.8994 45.4149 45.2051 45.6962 44.4407C46.0688 43.3881 46.2658 42.2764 46.2785 41.154C46.3597 39.2875 46.38 38.728 46.38 33.9998C46.38 29.2717 46.3597 28.7121 46.2785 26.8457C46.2662 25.7221 46.0692 24.6091 45.6962 23.5555ZM32.4998 43.0948C30.7804 43.0948 29.0995 42.5614 27.6698 41.5621C26.2402 40.5627 25.1259 39.1422 24.4679 37.4803C23.8099 35.8184 23.6377 33.9897 23.9731 32.2255C24.3086 30.4612 25.1366 28.8407 26.3524 27.5687C27.5683 26.2967 29.1173 25.4305 30.8038 25.0796C32.4902 24.7287 34.2382 24.9088 35.8268 25.5972C37.4154 26.2855 38.7731 27.4513 39.7284 28.9469C40.6837 30.4426 41.1936 32.201 41.1936 33.9998C41.1936 36.412 40.2776 38.7253 38.6472 40.431C37.0169 42.1366 34.8056 43.0948 32.4998 43.0948ZM41.5355 26.6721C41.1338 26.6721 40.741 26.5475 40.407 26.314C40.073 26.0805 39.8126 25.7486 39.6589 25.3603C39.5051 24.972 39.4649 24.5448 39.5433 24.1326C39.6217 23.7204 39.8151 23.3417 40.0992 23.0445C40.3833 22.7473 40.7452 22.545 41.1392 22.463C41.5333 22.381 41.9417 22.423 42.3128 22.5839C42.684 22.7447 43.0012 23.0171 43.2244 23.3665C43.4476 23.716 43.5668 24.1268 43.5668 24.5471C43.5668 25.1107 43.3528 25.6512 42.9718 26.0497C42.5909 26.4482 42.0742 26.6721 41.5355 26.6721Z" fill="black"/>
<path d="M32.4999 39.9041C35.6167 39.9041 38.1434 37.2608 38.1434 34.0002C38.1434 30.7395 35.6167 28.0962 32.4999 28.0962C29.3831 28.0962 26.8564 30.7395 26.8564 34.0002C26.8564 37.2608 29.3831 39.9041 32.4999 39.9041Z" fill="black"/>
<path d="M32.5 0C26.0721 0 19.7886 1.99406 14.444 5.73003C9.09938 9.466 4.93378 14.7761 2.47393 20.9888C0.0140817 27.2015 -0.629527 34.0377 0.624493 40.6331C1.87851 47.2284 4.97384 53.2866 9.51904 58.0416C14.0643 62.7966 19.8552 66.0348 26.1596 67.3467C32.464 68.6586 38.9986 67.9853 44.9372 65.4119C50.8758 62.8385 55.9516 58.4807 59.5228 52.8894C63.0939 47.2981 65 40.7246 65 34C65 24.9826 61.5759 16.3346 55.481 9.95837C49.3861 3.58213 41.1196 0 32.5 0ZM49.3255 41.3029C49.2965 42.7713 49.0298 44.2238 48.5367 45.599C48.102 46.7751 47.4371 47.8432 46.5848 48.7348C45.7325 49.6265 44.7115 50.322 43.5873 50.7769C42.2728 51.2927 40.8843 51.5717 39.4807 51.6021C37.6729 51.6871 37.0974 51.7083 32.5 51.7083C27.9026 51.7083 27.3271 51.6871 25.5193 51.6021C24.1157 51.5717 22.7272 51.2927 21.4128 50.7769C20.2886 50.322 19.2676 49.6265 18.4152 48.7348C17.5629 47.8432 16.8981 46.7751 16.4633 45.599C15.9702 44.2238 15.7035 42.7713 15.6745 41.3029C15.5932 39.4117 15.5729 38.8096 15.5729 34C15.5729 29.1904 15.5932 28.5883 15.6745 26.6971C15.7035 25.2287 15.9702 23.7761 16.4633 22.401C16.8981 21.2249 17.5629 20.1568 18.4152 19.2652C19.2676 18.3735 20.2886 17.678 21.4128 17.2231C22.7272 16.7073 24.1157 16.4283 25.5193 16.3979C27.3271 16.3129 27.9026 16.2917 32.5 16.2917C37.0974 16.2917 37.6729 16.3129 39.4807 16.3979C40.8843 16.4283 42.2728 16.7073 43.5873 17.2231C44.7115 17.678 45.7325 18.3735 46.5848 19.2652C47.4371 20.1568 48.102 21.2249 48.5367 22.401C49.0298 23.7761 49.2965 25.2287 49.3255 26.6971C49.4068 28.5883 49.4271 29.1904 49.4271 34C49.4271 38.8096 49.4068 39.4117 49.3255 41.3029Z" fill="black"/>
</g>
<defs>
<clipPath id="clip0_841_4027">
<rect width="65" height="68" fill="white"/>
</clipPath>
</defs>
</svg>
