<svg width="211" height="94" viewBox="0 0 211 94" fill="none" xmlns="http://www.w3.org/2000/svg">
<g clip-path="url(#clip0_1201_540)">
<path d="M40.2657 0.826172H48.059V1.08344H49.0332L50.3321 1.1692L50.738 1.34071L52.1993 1.51223L53.1734 1.7695L54.2288 1.94101L54.6347 2.11253L55.5277 2.28404L56.2583 2.54131L56.9077 2.79859L57.8007 2.9701L58.4502 3.22737L59.7491 3.82767L61.4539 4.42797L66.4871 7.08644L67.1365 7.60098L68.1919 8.20128L68.9225 8.71583L69.7343 9.31613L70.4649 9.83067V10.0022L70.7897 10.1737L71.5203 10.6882L72.0886 11.2028V11.3743L72.4133 11.5458L72.9816 12.0604L73.4686 12.4034L74.0369 12.9179L74.3616 13.261V13.4325H74.524V13.604H74.6863V13.7755L75.0111 13.947V14.1185L75.3358 14.29V14.4616L75.6605 14.6331V14.8046H75.8229V14.9761H75.9852L76.4723 15.5764L77.8524 17.0343L78.0959 17.5488L79.0701 18.6637L79.476 19.3497L80.2066 20.293L80.4502 20.7218L81.0184 21.6651L81.5055 22.437L82.0738 23.2945L82.7232 24.4951L83.2103 25.3527L84.1033 27.1536L84.7528 28.6972L85.4022 30.4124L85.8893 31.956L86.2952 32.8993L86.4576 33.9284L86.7011 34.5287L86.9446 35.3005L87.107 36.3296L87.2694 36.5869L87.4317 38.1305L87.5941 38.2163L87.6753 38.5593L87.7565 40.1029L88 40.2744V53.5668L87.8376 53.6526L87.7565 53.9098L87.6753 55.2819L87.5129 55.7107L87.4317 55.7965L87.2694 57.3401L87.107 57.5974L86.9446 58.7122L86.7823 58.9695L86.6199 59.7413L86.4576 60.1701L86.2952 61.1134L85.8081 62.1425L85.321 63.8577L84.8339 64.9725L84.3469 66.2589L83.6974 67.631L82.9668 69.0888L82.5609 69.6891L82.0738 70.7182L81.5867 71.4043L81.262 71.9188L80.6937 72.8621L80.2878 73.3767L80.1255 73.8055L79.8007 74.2343L79.3948 74.663L79.1513 75.1776L78.5018 75.9494L78.1771 76.2924H78.0148L77.8524 76.8927L73.2251 81.7809L72.8192 81.9524L71.845 82.8957L71.1956 83.496L70.7897 83.7533L70.059 84.4394L69.572 84.6966L68.8413 85.2112L67.7048 85.983L66.6494 86.669L65.107 87.5266L61.8598 89.2418L60.8856 89.6705L59.9926 90.0136L58.9373 90.4424L57.2325 91.0427L55.5277 91.5572L53.9852 91.986L52.2804 92.329L50.6568 92.5005L50.5756 92.7578H37.6679L37.4244 92.5005L35.9631 92.329L33.69 91.8145L31.9041 91.2999L30.0369 90.6996L28.9004 90.2708L28.3321 90.0136L26.952 89.499L25.572 88.813L24.1919 88.0412L22.3247 87.0978L21.6753 86.669L21.2694 86.326L20.1328 85.7257L19.6458 85.2969L19.1587 85.0397L18.6716 84.6109L18.1845 84.3536L17.5351 83.7533V83.5818L16.9668 83.4103L15.8303 82.2097L15.4244 81.8666L14.9373 81.6094L10.4723 76.8927L10.2288 76.3782L9.33579 75.3491L9.09225 75.0061L8.84871 74.5773L8.11808 73.634L7.631 72.8621L7.06273 71.9188L6.16974 70.5467L5.68266 69.5176L5.19557 68.8316L4.54613 67.4594L3.57196 65.3155L3.16605 64.1149L2.84133 63.2574L2.35424 61.7995L1.94834 60.7704L1.7048 59.7413L1.29889 58.455L1.05535 57.3401L0.811808 55.7965L0.649446 55.1104L0.487085 53.7383L0.324723 53.2238L0.243542 50.9083L0 50.8226V43.0187L0.162362 42.9329L0.243542 42.5899L0.324723 40.9605L0.568266 39.6741L0.730627 38.302L0.892989 37.7875L1.05535 36.5869L1.46125 35.0433L1.86716 33.6711L2.1107 32.6421L2.51661 31.6987L3.08487 29.8978L3.40959 29.2118L3.73432 28.1827L5.03321 25.4385L5.5203 24.5809L5.76384 24.2379L6.25092 23.2088L6.73801 22.5227L7.22509 21.7509L7.79336 20.8076L8.36162 19.95L9.01107 19.1782L9.25461 18.6637L10.2288 17.5488L10.4723 17.0343L11.3653 16.0909L11.5277 15.8337H11.69L11.8524 15.4906H12.0148L12.1771 15.1476H12.3395L12.5018 14.8046H12.6642L12.8266 14.4616H12.9889L13.1513 14.1185H13.3137L13.476 13.7755H13.6384L13.8007 13.4325H13.9631L14.0443 13.1752L14.6937 12.5749L15.1808 12.1461L15.8303 11.6316L16.3985 11.0313L17.1292 10.431L17.6162 10.0879L18.428 9.40188L19.6458 8.54431L20.5387 7.94401L21.4317 7.42947L22.1624 6.91493L23.786 6.05736L25.1661 5.28554L27.0332 4.34221L27.6015 4.1707L28.0886 3.91343L28.8192 3.74191L28.9816 3.5704L29.5498 3.31313L30.4428 3.05586L30.6863 2.88434L31.7417 2.71283L31.9852 2.54131L32.7159 2.3698L32.9594 2.19829L34.0148 2.02677L34.2583 1.85526L35.6384 1.68374L36.1255 1.51223L37.6679 1.42647L37.7491 1.1692L40.1845 1.08344L40.2657 0.826172Z" fill="#E9ECED"/>
<path d="M72.4132 52.3662H75.011L76.8782 52.5377L79.7195 52.9665L81.5867 53.3953L82.2361 53.5668L81.9926 54.5101L81.5867 56.5683L81.2619 58.455L80.6937 60.4274L79.8819 62.8286L78.9889 64.9725L78.5018 65.9158L77.6088 67.7167L77.1217 68.4885L76.6346 69.3461L75.4981 71.2328L74.7675 72.1761L74.1992 72.9479L73.4686 73.8912L72.5756 74.9203L71.845 75.7779L71.1955 76.3782L70.6273 77.0643L69.6531 78.0076L68.3542 79.1224L67.4612 79.8085L66.6494 80.4088L65.2693 81.4379L63.4833 82.5527L61.7785 83.5818L59.8302 84.5251L58.856 84.9539L57.0701 85.64L54.1475 86.5833L52.6863 86.9263L49.5202 87.4409L46.9225 87.6981L45.5424 87.7839H43.9188L40.1033 87.5266L37.9926 87.2694L35.5571 86.8406L33.2841 86.1545L31.0922 85.3827L29.5498 84.7824L28.2509 84.0963L26.7084 83.2388L25.4095 82.467L24.5977 82.0382L23.8671 81.5236L22.7306 80.7518L21.6752 79.98L20.7822 79.2939L20.1328 78.6936L19.321 77.9218L18.8339 77.493V77.3215L18.5092 77.15L17.3726 75.9494L16.7232 75.3491L15.8302 74.32L14.9372 73.2052L14.1254 72.0046V71.8331H13.9631L13.0701 70.461L12.5018 69.6034L11.5276 67.8025L10.3099 65.2298L9.74165 63.8577L9.25457 62.6571L8.2804 59.7413L8.19922 58.798L9.90402 59.0553L12.2583 59.5698L14.2066 60.1701L16.3985 60.9419L17.3726 61.3707L19.8081 62.314L22.2435 63.1716L24.5977 63.6861L28.8191 64.2864L29.8745 64.3722H31.904L34.0147 64.2007L37.9926 63.6861L40.2656 63.2574L41.8892 62.7428L43.1881 62.3998L45.1365 61.5422L47.8966 60.1701L49.5202 59.3983L50.8191 58.7122L52.0368 58.0262L53.3357 57.3401L54.6346 56.7398L56.9077 55.7107L58.9372 54.9389L61.4538 54.0814L63.321 53.6526L65.0258 53.3095L65.9188 52.9665L67.4612 52.7092L69.3284 52.5377L72.4132 52.3662Z" fill="#151515"/>
<path d="M40.2657 0.826172H48.059V1.08344H49.0332L50.3321 1.1692L50.738 1.34071L52.1993 1.51223L53.1734 1.7695L54.2288 1.94101L54.6347 2.11253L55.5277 2.28404L56.2583 2.54131L56.9077 2.79859L57.8007 2.9701L58.4502 3.22737L59.7491 3.82767L61.4539 4.42797L66.4871 7.08644L67.1365 7.60098L68.1919 8.20128L68.9225 8.71583L69.7343 9.31613L70.4649 9.83067V10.0022L70.7897 10.1737L71.5203 10.6882L72.0886 11.2028V11.3743L72.4133 11.5458L72.9816 12.0604L73.4686 12.4034L74.0369 12.9179L74.3616 13.261V13.4325H74.524V13.604H74.6863V13.7755L75.0111 13.947V14.1185L75.3358 14.29V14.4616L75.6605 14.6331V14.8046H75.8229V14.9761H75.9852L76.4723 15.5764L77.8524 17.0343L78.0959 17.5488L79.0701 18.6637L79.476 19.3497L80.2066 20.293L80.4502 20.7218L81.0184 21.6651L81.5055 22.437L82.0738 23.2945L82.7232 24.4951L83.2103 25.3527L84.1033 27.1536L84.7528 28.6972L85.4022 30.4124L85.8893 31.956L86.2952 32.8993L86.4576 33.9284L86.7011 34.5287L86.9446 35.3005L87.107 36.3296L87.2694 36.5869L87.4317 38.1305L87.5941 38.2163L87.6753 38.5593L87.7565 40.1029L88 40.2744V53.5668L87.8376 53.6526L87.7565 53.9098L87.6753 55.2819L87.5129 55.7107L87.4317 55.7965L87.2694 57.3401L87.107 57.5974L86.9446 58.7122L86.7823 58.9695L86.6199 59.7413L86.4576 60.1701L86.2952 61.1134L85.8081 62.1425L85.321 63.8577L84.8339 64.9725L84.3469 66.2589L83.6974 67.631L82.9668 69.0888L82.5609 69.6891L82.0738 70.7182L81.5867 71.4043L81.262 71.9188L80.6937 72.8621L80.2878 73.3767L80.1255 73.8055L79.8007 74.2343L79.3948 74.663L79.1513 75.1776L78.5018 75.9494L78.1771 76.2924H78.0148L77.8524 76.8927L73.2251 81.7809L72.8192 81.9524L71.845 82.8957L71.1956 83.496L70.7897 83.7533L70.059 84.4394L69.572 84.6966L68.8413 85.2112L67.7048 85.983L66.6494 86.669L65.107 87.5266L61.8598 89.2418L60.8856 89.6705L59.9926 90.0136L58.9373 90.4424L57.2325 91.0427L55.5277 91.5572L53.9852 91.986L52.2804 92.329L50.6568 92.5005L50.5756 92.7578H37.6679L37.4244 92.5005L35.9631 92.329L33.69 91.8145L31.9041 91.2999L30.0369 90.6996L28.9004 90.2708L28.3321 90.0136L26.952 89.499L25.572 88.813L24.1919 88.0412L22.3247 87.0978L21.6753 86.669L21.2694 86.326L20.1328 85.7257L19.6458 85.2969L19.1587 85.0397L18.6716 84.6109L18.1845 84.3536L17.5351 83.7533V83.5818L16.9668 83.4103L15.8303 82.2097L15.4244 81.8666L14.9373 81.6094L10.4723 76.8927L10.2288 76.3782L9.33579 75.3491L9.09225 75.0061L8.84871 74.5773L8.11808 73.634L7.631 72.8621L7.06273 71.9188L6.16974 70.5467L5.68266 69.5176L5.19557 68.8316L4.54613 67.4594L3.57196 65.3155L3.16605 64.1149L2.84133 63.2574L2.35424 61.7995L1.94834 60.7704L1.7048 59.7413L1.29889 58.455L1.05535 57.3401L0.811808 55.7965L0.649446 55.1104L0.487085 53.7383L0.324723 53.2238L0.243542 50.9083L0 50.8226V43.0187L0.162362 42.9329L0.243542 42.5899L0.324723 40.9605L0.568266 39.6741L0.730627 38.302L0.892989 37.7875L1.05535 36.5869L1.46125 35.0433L1.86716 33.6711L2.1107 32.6421L2.51661 31.6987L3.08487 29.8978L3.40959 29.2118L3.73432 28.1827L5.03321 25.4385L5.5203 24.5809L5.76384 24.2379L6.25092 23.2088L6.73801 22.5227L7.22509 21.7509L7.79336 20.8076L8.36162 19.95L9.01107 19.1782L9.25461 18.6637L10.2288 17.5488L10.4723 17.0343L11.3653 16.0909L11.5277 15.8337H11.69L11.8524 15.4906H12.0148L12.1771 15.1476H12.3395L12.5018 14.8046H12.6642L12.8266 14.4616H12.9889L13.1513 14.1185H13.3137L13.476 13.7755H13.6384L13.8007 13.4325H13.9631L14.0443 13.1752L14.6937 12.5749L15.1808 12.1461L15.8303 11.6316L16.3985 11.0313L17.1292 10.431L17.6162 10.0879L18.428 9.40188L19.6458 8.54431L20.5387 7.94401L21.4317 7.42947L22.1624 6.91493L23.786 6.05736L25.1661 5.28554L27.0332 4.34221L27.6015 4.1707L28.0886 3.91343L28.8192 3.74191L28.9816 3.5704L29.5498 3.31313L30.4428 3.05586L30.6863 2.88434L31.7417 2.71283L31.9852 2.54131L32.7159 2.3698L32.9594 2.19829L34.0148 2.02677L34.2583 1.85526L35.6384 1.68374L36.1255 1.51223L37.6679 1.42647L37.7491 1.1692L40.1845 1.08344L40.2657 0.826172ZM42.6199 5.88584L40.2657 6.05736L37.3432 6.48614L34.3395 7.1722L32.6347 7.7725L30.7675 8.45856L29.5498 8.9731L27.6827 9.91643L26.3026 10.6025L24.5978 11.6316L23.2177 12.5749L21.4317 13.8613L19.8893 15.0619L18.1033 16.6055L17.1292 17.5488L16.2362 18.3206L15.8303 18.7494L14.9373 19.7785L13.9631 20.8933L13.0701 22.0939L12.4207 22.9515L11.6089 24.1521L10.797 25.4385L9.90406 27.1536L9.49815 27.7539L9.01107 29.126L8.36162 30.4124L7.54982 32.8136L6.98155 34.5287L6.57565 35.9008L6.25092 37.1872L5.5203 40.7032L5.19557 42.5041L4.95203 45.9344V51.3371L5.19557 54.5101L5.76384 57.9404L6.41328 60.6846L6.81919 61.7995L7.38745 63.6004L8.11808 65.4013L8.52398 66.4304L9.33579 67.974L9.7417 68.8316L10.7159 70.5467L11.2841 71.4043L12.2583 72.8621L13.0701 73.977L13.9631 75.1776L14.9373 76.2924L15.5055 76.9785L17.3727 78.9509L18.0221 79.5512L18.5904 80.1515L19.7269 81.0948L22.6494 83.3245L23.2989 83.7533L25.0037 84.7824L26.6273 85.7257L28.2509 86.4975L29.0627 86.9263L30.1993 87.3551L31.7417 88.0412L33.3653 88.4699L35.5572 89.156L37.1808 89.499L40.5092 89.9278L41.9705 90.0993L44.5683 90.1851L46.8413 90.0993L48.7897 89.8421L52.1993 89.4133L54.31 88.8987L56.7454 88.1269L58.369 87.5266L60.3985 86.669L61.3727 86.2403L63.9705 84.8681L65.2694 84.0963L66.1624 83.496L67.7048 82.3812L68.5166 81.7809L69.2472 81.2663L70.059 80.5803L70.7897 79.98L72.0886 78.6936L72.8192 78.0076L73.1439 77.5788V77.4073L73.4686 77.2358L74.1181 76.5497L74.6863 75.8636L75.2546 75.2633L76.1476 74.0627L76.9594 73.0337L77.4465 72.1761L77.7712 71.7473L78.5018 70.5467L79.0701 69.6034L79.8007 68.1455L80.2066 67.4594L80.6937 66.2589L81.0996 65.4013L82.2362 62.3998L83.2915 58.798L84.0221 54.6816L84.1845 53.2238L84.3469 49.8792V46.8777L84.1845 44.5623L84.0221 42.7614L83.8598 42.1611L83.6974 41.0463L83.2103 37.959L82.3173 34.786L81.9114 33.4996L80.6937 30.4124L79.7196 28.2684L78.7454 26.4675L77.8524 24.9239L77.1218 23.8091L76.4723 22.8657L75.7417 21.8367L74.7675 20.6361L74.1993 19.95L73.4686 19.0924L72.3321 17.8061L71.1144 16.6055L70.3026 15.8337L69.4908 15.1476L67.786 13.7755L66.4871 12.8322L65.4317 12.1461L64.2952 11.4601L62.8339 10.6025L62.1845 10.2595L59.6679 9.05886L58.4502 8.63007L57.6384 8.28704L55.7712 7.68674L53.7417 7.08644L50.1697 6.40038L46.4354 5.9716L45.1365 5.88584H42.6199Z" fill="#151515"/>
<path d="M30.1992 26.21H33.5276L34.5018 26.8103L34.8265 27.239L34.9077 27.4963V28.7827L34.5018 29.4687L33.69 29.8975L33.1217 30.069V34.6142L33.2029 46.3629V54.8528L32.9594 55.8819L32.3911 57.3398L31.5793 58.8834L30.7675 59.6552L29.8745 60.2555L28.9003 60.6843L27.4391 61.0274H25.9778L24.3542 60.6843L23.2988 60.084L22.1623 59.0549L21.107 57.6828L20.4575 56.3107L20.1328 55.5389L20.0516 55.0244V30.069L19.9704 29.9833L19.1586 29.8118L18.5903 29.2972L18.2656 28.6112V27.8393L18.6715 26.9818L19.2398 26.4672L19.6457 26.2957H27.845L30.1992 26.21Z" fill="#E9ECED"/>
<path d="M40.2657 0.826172H48.059V1.08344H49.0332L50.3321 1.1692L50.738 1.34071L52.1993 1.51223L53.1734 1.7695L54.2288 1.94101L54.6347 2.11253L55.5277 2.28404L56.2583 2.54131L56.9077 2.79859L57.8007 2.9701L58.4502 3.22737L59.7491 3.82767L61.4539 4.42797L66.4871 7.08644L67.1365 7.60098L68.1919 8.20128L68.9225 8.71583L69.7343 9.31613L70.4649 9.83067V10.0022L70.7897 10.1737L71.5203 10.6882L72.0886 11.2028V11.3743L72.4133 11.5458L72.9816 12.0604L73.4686 12.4034L74.0369 12.9179L74.3616 13.261V13.4325H74.524V13.604H74.6863V13.7755L75.0111 13.947V14.1185L75.3358 14.29V14.4616L75.6605 14.6331V14.8046H75.8229V14.9761H75.9852L76.4723 15.5764L77.8524 17.0343L78.0959 17.5488L79.0701 18.6637L79.476 19.3497L80.2066 20.293L80.4502 20.7218L81.0184 21.6651L81.5055 22.437L82.0738 23.2945L82.7232 24.4951L83.2103 25.3527L84.1033 27.1536L84.7528 28.6972L85.4022 30.4124L85.8893 31.956L86.2952 32.8993L86.4576 33.9284L86.7011 34.5287L86.9446 35.3005L87.107 36.3296L87.2694 36.5869L87.4317 38.1305L87.5941 38.2163L87.6753 38.5593L87.7565 40.1029L88 40.2744V53.5668L87.8376 53.6526L87.7565 53.9098L87.6753 55.2819L87.5129 55.7107L87.4317 55.7965L87.2694 57.3401L87.107 57.5974L86.9446 58.7122L86.7823 58.9695L86.6199 59.7413L86.4576 60.1701L86.2952 61.1134L85.8081 62.1425L85.321 63.8577L84.8339 64.9725L84.3469 66.2589L83.6974 67.631L82.9668 69.0888L82.5609 69.6891L82.0738 70.7182L81.5867 71.4043L81.262 71.9188L80.6937 72.8621L80.2878 73.3767L80.1255 73.8055L79.8007 74.2343L79.3948 74.663L79.1513 75.1776L78.5018 75.9494L78.1771 76.2924H78.0148L77.8524 76.8927L73.2251 81.7809L72.9004 81.6951L73.7934 80.9233L74.6863 79.8942L75.8229 78.6936L76.3911 78.0076L77.2029 77.0642L77.7712 76.3782L78.6642 75.2633L79.3137 74.2343L80.1255 73.0337L80.6125 72.2618L81.262 71.3185L82.0738 69.8606L82.5609 68.8316L83.1292 67.8882L83.6162 66.7734L84.1845 65.487L84.7528 63.7719L85.0775 63.0858L85.6458 61.2849L86.2952 58.7122L86.7011 56.2253L86.9446 54.6816L87.2694 51.3371L87.3506 49.7935V47.3065L87.1882 44.305L86.8635 41.2178L86.2952 37.4445L85.6458 35.0433L84.9963 32.7278L84.5904 31.6987L84.1845 30.5839L82.8856 27.6681L81.7491 25.3527L80.9373 23.8948L80.2066 22.78L79.5572 21.7509L78.6642 20.3788L77.8524 19.264L76.8782 18.0634L76.1476 17.2058L75.417 16.2625L73.9557 14.7188L73.0627 13.947L72.0886 13.0037L69.8155 11.117L68.7601 10.3452L67.3801 9.40188L66.0812 8.63007L64.9446 7.94401L63.6458 7.25796L61.2103 6.14311L59.3432 5.45706L58.0443 4.94251L56.6642 4.51373L55.5277 4.1707L54.4723 3.82767L53.0923 3.5704L50.9815 3.22737L48.2214 2.88434L46.2731 2.71283H42.9446L39.5351 3.05586L36.5314 3.48464L34.3395 3.99919L33.1218 4.42797L31.1734 5.02827L28.738 5.9716L25.8155 7.34371L23.9483 8.3728L21.6753 9.83067L20.4576 10.6882L18.9151 11.8888L17.6162 13.0037L16.8044 13.6897L15.9926 14.4616L15.3432 15.0619L14.6125 15.8337L13.9631 16.434L13.6384 16.8628L12.5018 18.0634L11.7712 19.0067L11.203 19.6927L10.3911 20.8076L9.82288 21.5794L8.52398 23.5518L7.79336 24.8382L7.06273 26.2103L6.41328 27.5824L5.27675 30.1551L4.54613 32.2133L3.97786 34.0142L3.40959 35.9008L2.92251 37.959L2.51661 40.3602L2.27306 41.6466L2.1107 43.7047L2.02952 45.3341V51.5944L2.19188 54.5101L2.92251 58.455L3.40959 60.5131L3.89668 61.8852L4.38376 63.6004L5.27675 66.0873L6.00738 67.8025L6.81919 69.4319L7.631 70.9755L8.36162 72.1761L9.25461 73.634L9.98524 74.663L10.8782 75.8636L12.0148 77.3215L13.3137 78.7794L14.0443 79.637L15.3432 81.0091L16.2362 81.7809L16.8044 82.3812L17.6974 83.153L18.9151 84.0963L20.1328 84.9539L21.6753 85.983L22.9742 86.8406L24.4354 87.6981L26.3026 88.6415L28.0074 89.4133L28.8192 89.7563L29.7934 90.1851L31.8229 90.9569L32.9594 91.2999L34.9889 91.7287L37.262 92.2433L38.8044 92.5005L40.2657 92.672V92.7578H37.6679L37.4244 92.5005L35.9631 92.329L33.69 91.8145L31.9041 91.2999L30.0369 90.6996L28.9004 90.2708L28.3321 90.0136L26.952 89.499L25.572 88.813L24.1919 88.0412L22.3247 87.0978L21.6753 86.669L21.2694 86.326L20.1328 85.7257L19.6458 85.2969L19.1587 85.0397L18.6716 84.6109L18.1845 84.3536L17.5351 83.7533V83.5818L16.9668 83.4103L15.8303 82.2097L15.4244 81.8666L14.9373 81.6094L10.4723 76.8927L10.2288 76.3782L9.33579 75.3491L9.09225 75.0061L8.84871 74.5773L8.11808 73.634L7.631 72.8621L7.06273 71.9188L6.16974 70.5467L5.68266 69.5176L5.19557 68.8316L4.54613 67.4594L3.57196 65.3155L3.16605 64.1149L2.84133 63.2574L2.35424 61.7995L1.94834 60.7704L1.7048 59.7413L1.29889 58.455L1.05535 57.3401L0.811808 55.7965L0.649446 55.1104L0.487085 53.7383L0.324723 53.2238L0.243542 50.9083L0 50.8226V43.0187L0.162362 42.9329L0.243542 42.5899L0.324723 40.9605L0.568266 39.6741L0.730627 38.302L0.892989 37.7875L1.05535 36.5869L1.46125 35.0433L1.86716 33.6711L2.1107 32.6421L2.51661 31.6987L3.08487 29.8978L3.40959 29.2118L3.73432 28.1827L5.03321 25.4385L5.5203 24.5809L5.76384 24.2379L6.25092 23.2088L6.73801 22.5227L7.22509 21.7509L7.79336 20.8076L8.36162 19.95L9.01107 19.1782L9.25461 18.6637L10.2288 17.5488L10.4723 17.0343L11.3653 16.0909L11.5277 15.8337H11.69L11.8524 15.4906H12.0148L12.1771 15.1476H12.3395L12.5018 14.8046H12.6642L12.8266 14.4616H12.9889L13.1513 14.1185H13.3137L13.476 13.7755H13.6384L13.8007 13.4325H13.9631L14.0443 13.1752L14.6937 12.5749L15.1808 12.1461L15.8303 11.6316L16.3985 11.0313L17.1292 10.431L17.6162 10.0879L18.428 9.40188L19.6458 8.54431L20.5387 7.94401L21.4317 7.42947L22.1624 6.91493L23.786 6.05736L25.1661 5.28554L27.0332 4.34221L27.6015 4.1707L28.0886 3.91343L28.8192 3.74191L28.9816 3.5704L29.5498 3.31313L30.4428 3.05586L30.6863 2.88434L31.7417 2.71283L31.9852 2.54131L32.7159 2.3698L32.9594 2.19829L34.0148 2.02677L34.2583 1.85526L35.6384 1.68374L36.1255 1.51223L37.6679 1.42647L37.7491 1.1692L40.1845 1.08344L40.2657 0.826172Z" fill="#E9ECED"/>
<path d="M46.4354 33.4136H47.166L47.7343 33.6708L47.9778 34.1854V35.043L47.6531 35.6433L47.4908 35.8148L47.4096 36.7581V54.5956L47.2472 55.9677L47.0037 56.7395L46.273 58.1116L45.5424 58.9692L44.8118 59.4837L43.5941 60.084L42.214 60.4271H41.5646L40.5092 59.741L39.4539 58.7977L38.8044 58.0259L38.0738 56.8253L37.8302 56.0535L37.6679 55.0244V47.1347L37.5867 37.8729L37.5055 35.9005L37.0184 35.4717L36.9373 34.6999L37.1808 33.9281L37.5055 33.5851L45.7048 33.4993L46.4354 33.4136Z" fill="#151515"/>
<path d="M60.2361 17.1201H61.1291L61.7786 17.4631L62.3468 18.1492L62.6716 18.8353L62.8339 19.5213V21.6652L62.5092 22.5228L62.0221 23.3804L61.7786 23.5519L61.6974 24.3237V29.7264L61.7786 31.9561H62.3468L62.5092 31.5273L63.4022 29.4691L63.7269 28.9546L64.7011 27.8398H64.8634L64.9446 27.5825L66 26.8107L67.5424 26.0389L68.4354 25.8673H69.166L69.5719 26.1246L69.8155 26.5534L69.7343 27.3252L69.4908 28.3543L68.6789 29.9837L67.9483 31.1843L67.2177 32.1276L66.4059 32.7279L65.4317 33.3282L64.1328 33.757L62.7527 34.1L62.0221 34.6146L61.7786 34.9576V41.9039H62.2657L62.5904 41.5609L63.0775 40.0173L63.6457 38.9024L64.4575 37.9591L65.3505 37.1873L67.2989 36.244L68.1107 35.9867L69.0849 35.9009L69.6531 36.1582L69.8155 36.3297L69.8967 36.93L69.5719 38.3879L68.9225 39.76L68.273 40.8748L67.1365 42.1612L66.3247 42.7615L64.9446 43.3618L63.8893 43.6191L62.9151 43.8763L62.2657 44.3909L61.8598 45.0769L61.7786 45.5057V51.9375L61.6974 52.6236L60.9668 52.7093H59.9926L59.8302 52.4521L59.7491 50.3939V44.9054L59.5055 44.4766L58.7749 43.7906L57.3136 43.6191L56.2583 43.4476L54.9594 42.7615L53.9852 41.8182L53.2546 40.9606L52.6051 39.8458L51.9557 38.3021L51.7122 37.3588V36.4155L52.1181 35.9009L52.7675 35.8152L53.9852 35.9867L55.6088 36.6727L56.583 37.3588L57.7195 38.5594L58.369 39.6742L59.262 41.4751L59.5867 41.9039H59.7491V34.6146L59.3432 34.4431L58.9373 34.1L58.5313 33.9285L56.9077 33.6712L55.8524 33.2425L54.7158 32.3849L54.4723 32.2134V32.0419L54.1476 31.8703L53.2546 30.6697L52.8487 30.0694L52.3616 28.8688L51.8745 27.2395L51.7933 26.3819L52.0369 25.9531L52.3616 25.7816H53.0922L54.4723 26.1246L56.4206 27.1537L57.2325 27.9255L57.9631 28.7831L58.6937 30.1552L59.0996 31.27L59.4243 31.9561L59.8302 32.0419L59.7491 24.1522L59.5867 23.7234L59.0996 23.1231L58.6125 22.094L58.4502 20.8934L58.5313 19.5213L58.9373 18.3207L59.4243 17.6347L59.8302 17.2916L60.2361 17.1201Z" fill="#151515"/>
<path d="M30.1992 26.21H33.5276L34.5018 26.8103L34.8265 27.239L34.9077 27.4963V28.7827L34.5018 29.4687L33.69 29.8975L33.1217 30.069V34.6142L33.2029 46.3629V54.8528L32.9594 55.8819L32.3911 57.3398L31.5793 58.8834L30.7675 59.6552L29.8745 60.2555L28.9003 60.6843L27.4391 61.0274H25.9778L24.3542 60.6843L23.2988 60.084L22.1623 59.0549L21.107 57.6828L20.4575 56.3107L20.1328 55.5389L20.0516 55.0244V30.069L19.9704 29.9833L19.1586 29.8118L18.5903 29.2972L18.2656 28.6112V27.8393L18.6715 26.9818L19.2398 26.4672L19.6457 26.2957H27.845L30.1992 26.21ZM22.8118 29.383L22.5682 29.726V33.9281L22.487 35.729V36.7581L22.7306 37.0154L24.3542 36.8438H25.9778L26.059 37.1869V38.1302L25.9778 38.3017H22.8118L22.5682 38.216L22.487 38.3017L22.4058 40.4456L22.2435 42.4181L22.0811 48.1638V50.3935L22.1623 54.4241L22.4058 55.4531L22.9741 56.4822L23.7047 57.4256L24.5977 58.1116L25.6531 58.5404L26.3025 58.7119H27.1955L28.2509 58.3689L29.225 57.8543L29.7933 57.254L30.4427 56.1392L30.7675 55.3674L30.9298 54.5956V45.9341L30.7675 37.2726L30.6863 29.4687L30.4427 29.383L29.3062 29.4687H23.7859L22.8118 29.383Z" fill="#151515"/>
<path d="M44.4059 35.8149H45.1365V42.847L45.2177 45.5055L45.2989 49.7076V55.1103L44.9741 55.9679L44.2435 56.9969L43.5129 57.5115L42.6199 57.8545H42.0516L41.0775 57.34L40.428 56.6539L39.9409 55.7963L39.7786 54.853V36.0722L39.8597 35.9007L44.4059 35.8149Z" fill="#E9ECED"/>
<path d="M23.299 41.2178L27.1956 41.3035L29.3063 41.3893L30.037 41.475V53.8241L29.8746 54.8532L29.3063 55.968L28.6569 56.6541L27.5204 57.2544L27.1145 57.3401H26.3838L25.3285 56.9971L24.5167 56.3968L23.8672 55.625L23.4613 54.6816L23.299 53.3953L23.2178 50.7368V41.3035L23.299 41.2178Z" fill="#151515"/>
<path d="M41.8182 45.1514H45V47.0974L44.8864 55.5009L44.6591 56.1201L43.75 56.8277L42.7273 57.1816L41.8182 57.0047L40.7955 56.4739L40.2273 55.8547L40.1136 55.5009L40 48.7781V45.3283L41.8182 45.1514Z" fill="#151515"/>
<path d="M52.3617 67.2021H53.3359L54.0665 67.4594L54.8783 68.0597L55.5277 68.8315L55.7713 69.4318L55.8525 69.8606V71.147L55.5277 72.1761L55.0407 72.8621L54.2289 73.4624L53.6606 73.7197H52.1993L51.2252 73.2051L50.5757 72.5191L50.0886 71.49L49.9263 70.9755V69.7749L50.251 68.8315L50.7381 68.0597L51.7122 67.3737L52.3617 67.2021Z" fill="#E9ECED"/>
<path d="M27.1955 17.5488H28.4944L29.3062 17.9776L29.8745 18.5779L30.3616 19.5212L30.4428 19.8643V20.8076L30.118 21.6652L29.631 22.3512L28.9003 22.8658L28.1697 23.2088H27.5203L26.7896 22.8658L26.1402 22.3512L25.6531 21.6652L25.4095 21.0649L25.3284 20.0358L25.4907 19.1782L25.9778 18.3206L26.3025 18.1491V17.9776L26.8708 17.6346L27.1955 17.5488Z" fill="#151515"/>
<path d="M41.4835 22.6084H42.3765L42.9447 22.8657L43.5942 23.466L44.0001 24.152L44.0813 24.4093V25.3526L43.7565 26.1244L43.2695 26.8105L42.62 27.2393H41.4023L40.7529 26.8963L40.1846 26.296L39.8599 25.3526V24.4951L40.1034 23.7232L40.6717 23.0372L41.1588 22.6942L41.4835 22.6084Z" fill="#151515"/>
<path d="M36.5314 79.0366L37.5868 79.2081L37.9927 79.5512L38.3174 80.2372V81.1805L37.9927 81.8666L37.4244 82.3811L37.1809 82.4669H36.2879L35.6385 82.0381L35.0702 81.4378L34.989 81.2663V80.4945L35.3949 79.7227L35.9632 79.2081L36.5314 79.0366Z" fill="#E9ECED"/>
<path d="M46.1107 78.1792H46.9225L47.5719 78.5222L47.9778 79.0368L48.1402 79.5513V80.1516L47.8155 80.8377L47.166 81.438L46.8413 81.6095H46.273L45.6236 81.2665L45.0553 80.5804L44.9741 80.4089V79.6371L45.38 78.7795L45.7859 78.3507L46.1107 78.1792Z" fill="#E9ECED"/>
<path d="M66.1624 60.9419L66.7307 61.0277L67.3801 61.4564L67.7048 61.8852V62.657L67.2178 63.4288L66.5683 63.9434L65.8377 63.7719L65.2694 63.0858L65.1882 62.8286V61.971L65.4318 61.4564L65.8377 61.1134L66.1624 60.9419Z" fill="#E9ECED"/>
<path d="M58.9373 76.2065L59.6679 76.3781L60.2362 76.8926L60.3986 77.4071L60.3174 78.2647L59.7491 78.9508L59.262 79.1223L58.6938 79.0365L58.0443 78.4362L57.8008 77.6644L57.9631 76.9784L58.369 76.4638L58.9373 76.2065Z" fill="#E9ECED"/>
<path d="M28.9815 76.0352H29.6309L30.118 76.2924L30.6051 76.8927V77.9218L30.2804 78.5221L29.7933 78.9509H29.1438L28.5756 78.5221L28.2509 78.0076L28.1697 77.7503V76.9785L28.4944 76.4639L28.9815 76.0352Z" fill="#E9ECED"/>
<path d="M67.0553 68.231L67.5424 68.3167L67.9483 68.7455L68.3542 69.4316V69.9461L67.9483 70.6322L67.5424 71.0609L67.1365 71.1467L66.5683 70.8894L66.1624 70.3749L66 69.9461L66.0812 69.1743L66.4059 68.6597L66.8118 68.3167L67.0553 68.231Z" fill="#E9ECED"/>
<path d="M26.059 70.2036L26.5461 70.2894L27.0332 70.8897L27.1955 71.3185V71.9188L26.8708 72.5191L26.3837 72.7763L25.6531 72.6048L25.0848 71.9188L25.0037 71.2327L25.2472 70.7182L25.6531 70.3751L26.059 70.2036Z" fill="#E9ECED"/>
<path d="M37.4244 70.0322L38.155 70.118L38.7233 70.6325L38.8044 70.804V71.4901L38.4797 72.0046L38.0738 72.4334H37.4244L37.0185 72.1762L36.6937 71.6616L36.6125 70.9756L36.8561 70.461L37.1808 70.118L37.4244 70.0322Z" fill="#E9ECED"/>
<path d="M24.1107 32.7275H25.5719L25.8966 33.2421L25.8155 33.6709L25.4907 33.9281L24.8413 34.0997L23.5424 34.1854L23.1365 34.0139L22.9741 33.5851V33.1563L23.6236 32.8133L24.1107 32.7275Z" fill="#151515"/>
<path d="M19.5646 69.5176L20.1329 69.6033L20.7011 70.2894V70.9754L20.3764 71.49L20.1329 71.7473L19.6458 71.833L19.2399 71.5757L18.834 70.9754V70.4609L19.3211 69.6891L19.5646 69.5176Z" fill="#E9ECED"/>
<path d="M61.2916 67.1162L61.8598 67.202L62.2657 67.6308V68.4883L61.8598 69.1744L61.5351 69.3459L60.9668 69.2601L60.3986 68.5741L60.3174 68.0595L60.8856 67.3735L61.2916 67.1162Z" fill="#E9ECED"/>
<path d="M42.2139 73.7197L42.701 73.8055L43.1069 74.1485L43.2693 74.4915V75.1776L42.9445 75.6921L42.701 75.8637H42.1327L41.7268 75.4349L41.5645 75.0918V74.4915L41.9704 73.8055L42.2139 73.7197Z" fill="#E9ECED"/>
<path d="M59.262 90.0991L59.5056 90.1849L58.5314 90.6137L57.2325 91.0424L55.5277 91.557L53.9853 91.9858L52.2805 92.3288L50.6569 92.5003L50.5757 92.7576H47.8967V92.6718L49.5203 92.5003L53.0923 91.8143L56.0148 91.1282L58.9373 90.1849L59.262 90.0991Z" fill="#E9ECED"/>
<path d="M26.059 45.5913L26.5461 45.6771L26.952 46.1059V46.7919L26.4649 47.3922L25.8966 47.478L25.3284 47.0492L25.166 46.7919V46.3631L25.6531 45.7628L26.059 45.5913Z" fill="#E9ECED"/>
<path d="M26.2213 51.5083H26.7084L27.0332 51.9371L27.1143 52.1086V52.7947L26.7896 53.3092L26.5461 53.4807L26.059 53.395L25.5719 52.9662L25.4907 52.5374L25.7343 52.0228L26.2213 51.5083Z" fill="#E9ECED"/>
<path d="M60.0739 72.3477H60.561L60.9669 72.6907L61.1292 73.4625L60.8857 73.8913L60.6421 74.0628L60.0739 73.977L59.5056 73.4625V72.948L59.9115 72.4334L60.0739 72.3477Z" fill="#E9ECED"/>
<path d="M54.1476 79.208L54.7159 79.2938L54.9594 79.8083L54.7971 80.3229L54.5535 80.4944H53.9853L53.5793 80.0656L53.6605 79.4653L53.8229 79.2938L54.1476 79.208Z" fill="#E9ECED"/>
<path d="M73.1438 62.1426L73.6309 62.2283L73.7933 62.4856L73.7121 63.0859L73.4685 63.5147H72.9815L72.8191 63.0859V62.5714L73.1438 62.1426Z" fill="#D7DADB"/>
</g>
<g filter="url(#filter0_i_1201_540)">
<path d="M105.63 47.2532C105.118 47.2532 104.787 47.0719 104.638 46.7092C104.51 46.3466 104.446 45.9519 104.446 45.5252C104.446 44.5439 104.627 43.4879 104.99 42.3572C105.352 41.2479 105.832 40.1172 106.43 38.9652C107.048 37.8132 107.72 36.6932 108.446 35.6052C109.192 34.4959 109.95 33.4826 110.718 32.5652C111.486 31.6266 112.211 30.8266 112.894 30.1652C113 29.5466 113.075 28.9279 113.118 28.3092C113.182 27.6906 113.214 27.0719 113.214 26.4532C113.214 26.3039 113.214 26.1546 113.214 26.0052C113.214 25.8559 113.203 25.7066 113.182 25.5572C112.819 26.1332 112.328 26.9012 111.71 27.8612C111.112 28.8212 110.43 29.8452 109.662 30.9332C108.894 32.0212 108.094 33.0452 107.262 34.0052C106.43 34.9652 105.598 35.7546 104.766 36.3732C103.955 36.9919 103.198 37.3012 102.494 37.3012C101.726 37.3012 101.139 37.0559 100.734 36.5652C100.35 36.0746 100.094 35.4772 99.9656 34.7732C99.8376 34.0692 99.7736 33.4186 99.7736 32.8212C99.7736 31.3706 99.9976 29.9092 100.446 28.4372C100.915 26.9652 101.555 25.5466 102.366 24.1812C103.176 22.7946 104.104 21.5359 105.15 20.4052C106.216 19.2532 107.358 18.2932 108.574 17.5252C109.192 17.1412 109.854 16.7999 110.558 16.5012C111.283 16.2026 112.008 16.0532 112.734 16.0532C113.864 16.0532 114.739 16.4052 115.358 17.1092C115.998 17.8132 116.318 18.7092 116.318 19.7972C116.318 19.9466 116.296 20.2026 116.254 20.5652C116.211 20.9279 116.094 21.1092 115.902 21.1092C115.688 21.1092 115.571 20.9706 115.55 20.6932C115.528 20.3946 115.518 20.1706 115.518 20.0212C115.518 19.1679 115.251 18.4532 114.718 17.8772C114.206 17.3012 113.512 17.0132 112.638 17.0132C111.784 17.0132 110.931 17.2372 110.078 17.6852C109.224 18.1119 108.403 18.6879 107.614 19.4132C106.824 20.1386 106.088 20.9279 105.406 21.7812C104.744 22.6346 104.158 23.4986 103.646 24.3732C103.134 25.2266 102.728 26.0052 102.43 26.7092C102.024 27.6906 101.683 28.6826 101.406 29.6852C101.15 30.6666 101.022 31.6906 101.022 32.7572V33.4932C101.022 33.9199 101.043 34.3466 101.086 34.7732C101.15 35.1999 101.299 35.5626 101.534 35.8612C101.768 36.1386 102.152 36.2772 102.686 36.2772C103.368 36.2772 104.083 35.9892 104.83 35.4132C105.576 34.8372 106.323 34.0906 107.07 33.1732C107.816 32.2559 108.531 31.2852 109.214 30.2612C109.918 29.2372 110.558 28.2666 111.134 27.3492C111.731 26.4319 112.232 25.6852 112.638 25.1092C113.043 24.5332 113.32 24.2452 113.47 24.2452C113.726 24.2452 113.907 24.3732 114.014 24.6292C114.12 24.8639 114.184 25.1412 114.206 25.4612C114.248 25.7812 114.27 26.0692 114.27 26.3252C114.27 26.7946 114.259 27.2639 114.238 27.7332C114.216 28.2026 114.184 28.6612 114.142 29.1092C114.248 29.0239 114.451 28.8746 114.75 28.6612C115.07 28.4479 115.379 28.2559 115.678 28.0852C115.998 27.8932 116.222 27.7972 116.35 27.7972C116.456 27.7972 116.51 27.8399 116.51 27.9252C116.51 27.9892 116.392 28.1279 116.158 28.3412C115.944 28.5546 115.688 28.7892 115.39 29.0452C115.091 29.3012 114.803 29.5359 114.526 29.7492C114.27 29.9626 114.11 30.1012 114.046 30.1652C113.854 31.8292 113.544 33.5252 113.118 35.2532C112.712 36.9599 112.168 38.6239 111.486 40.2452C110.824 41.8666 110.003 43.3706 109.022 44.7572C108.808 45.0559 108.51 45.3972 108.126 45.7812C107.742 46.1866 107.326 46.5279 106.878 46.8052C106.451 47.1039 106.035 47.2532 105.63 47.2532ZM105.534 46.2292C106.195 46.2292 106.814 45.9412 107.39 45.3652C107.987 44.7892 108.542 44.0319 109.054 43.0932C109.566 42.1759 110.024 41.1519 110.43 40.0212C110.835 38.9119 111.187 37.8026 111.486 36.6932C111.806 35.5839 112.062 34.5812 112.254 33.6852C112.446 32.7679 112.584 32.0639 112.67 31.5732C111.838 32.4692 111.123 33.3012 110.526 34.0692C109.928 34.8372 109.384 35.6052 108.894 36.3732C108.424 37.1199 107.976 37.9306 107.55 38.8052C107.144 39.6799 106.718 40.6826 106.27 41.8132C106.142 42.1332 105.992 42.5172 105.822 42.9652C105.651 43.4346 105.502 43.8932 105.374 44.3412C105.246 44.8106 105.182 45.2266 105.182 45.5892C105.182 45.6746 105.203 45.8026 105.246 45.9732C105.288 46.1439 105.384 46.2292 105.534 46.2292ZM118.923 39.4772C118.774 39.4772 118.656 39.4239 118.571 39.3172C118.486 39.2106 118.443 39.0826 118.443 38.9332C118.443 38.1226 118.475 37.3119 118.539 36.5012C118.624 35.6692 118.667 34.8479 118.667 34.0372C118.667 33.5039 118.646 32.8319 118.603 32.0212C118.582 31.1892 118.507 30.3786 118.379 29.5892C118.272 28.7786 118.08 28.1599 117.803 27.7332C117.782 27.6906 117.76 27.6586 117.739 27.6372C117.718 27.5946 117.707 27.5519 117.707 27.5092C117.707 27.3812 117.771 27.2959 117.899 27.2532C118.027 27.1892 118.134 27.1572 118.219 27.1572C118.518 27.1572 118.752 27.3279 118.923 27.6692C119.094 28.0106 119.222 28.4479 119.307 28.9812C119.392 29.5146 119.446 30.0692 119.467 30.6452C119.51 31.1999 119.531 31.7119 119.531 32.1812C119.531 32.6292 119.531 32.9386 119.531 33.1092C119.531 33.3226 119.531 33.5252 119.531 33.7172C119.552 33.9092 119.563 34.1119 119.563 34.3252C119.648 34.0266 119.798 33.5679 120.011 32.9492C120.224 32.3306 120.48 31.6479 120.779 30.9012C121.078 30.1332 121.398 29.4079 121.739 28.7252C122.102 28.0212 122.454 27.4452 122.795 26.9972C123.158 26.5492 123.499 26.3252 123.819 26.3252C124.139 26.3252 124.374 26.5279 124.523 26.9332C124.672 27.3386 124.768 27.7759 124.811 28.2452C124.875 28.7146 124.907 29.0666 124.907 29.3012C124.907 29.4506 124.896 29.7066 124.875 30.0692C124.854 30.4106 124.8 30.7306 124.715 31.0292C124.651 31.3279 124.523 31.4772 124.331 31.4772C124.16 31.4772 124.075 31.2852 124.075 30.9012C124.075 30.7306 124.086 30.5706 124.107 30.4212C124.128 30.2719 124.139 30.1546 124.139 30.0692C124.139 29.9626 124.128 29.7172 124.107 29.3332C124.086 28.9279 124.032 28.5439 123.947 28.1812C123.883 27.8186 123.787 27.6372 123.659 27.6372C123.531 27.6372 123.371 27.7652 123.179 28.0212C123.008 28.2559 122.827 28.5439 122.635 28.8852C122.464 29.2052 122.304 29.5252 122.155 29.8452C122.027 30.1439 121.942 30.3572 121.899 30.4852C121.579 31.2746 121.238 32.1706 120.875 33.1732C120.534 34.1759 120.235 35.1892 119.979 36.2132C119.744 37.2159 119.627 38.1546 119.627 39.0292C119.478 39.3279 119.243 39.4772 118.923 39.4772ZM127.915 39.5732C127.339 39.5732 126.891 39.3172 126.571 38.8052C126.272 38.2932 126.07 37.6746 125.963 36.9492C125.856 36.2026 125.803 35.5092 125.803 34.8692C125.803 34.5706 125.803 34.3039 125.803 34.0692C125.824 33.8132 125.846 33.5999 125.867 33.4292H125.771C125.515 33.4292 125.387 33.3332 125.387 33.1412C125.43 33.0346 125.504 32.9492 125.611 32.8852C125.739 32.7999 125.856 32.7466 125.963 32.7252C126.07 31.7866 126.272 30.8266 126.571 29.8452C126.87 28.8639 127.275 27.9786 127.787 27.1892V26.9972C127.787 26.7839 127.915 26.6559 128.171 26.6132C128.278 26.5066 128.384 26.3892 128.491 26.2612C128.619 26.1119 128.758 26.0372 128.907 26.0372C129.078 26.0372 129.206 26.1119 129.291 26.2612C129.398 26.3892 129.408 26.5279 129.323 26.6772C129.728 26.7626 130.091 26.9332 130.411 27.1892C130.752 27.4239 130.923 27.7759 130.923 28.2452C130.923 28.8639 130.688 29.5039 130.219 30.1652C129.771 30.8052 129.227 31.3919 128.587 31.9252C127.968 32.4372 127.403 32.8212 126.891 33.0772C126.827 33.5892 126.784 34.1119 126.763 34.6452C126.763 35.1572 126.763 35.6692 126.763 36.1812C126.763 36.4372 126.774 36.7572 126.795 37.1412C126.838 37.5252 126.934 37.8666 127.083 38.1652C127.254 38.4639 127.531 38.6132 127.915 38.6132C128.32 38.6132 128.715 38.4319 129.099 38.0692C129.504 37.7066 129.888 37.2479 130.251 36.6932C130.635 36.1172 130.987 35.5199 131.307 34.9012C131.627 34.2826 131.904 33.6959 132.139 33.1412C132.374 32.5866 132.544 32.1599 132.651 31.8612C132.694 31.7546 132.747 31.6586 132.811 31.5732C132.875 31.4666 132.971 31.4132 133.099 31.4132C133.27 31.4132 133.355 31.5199 133.355 31.7332C133.355 32.0746 133.238 32.5652 133.003 33.2052C132.768 33.8239 132.448 34.4959 132.043 35.2212C131.659 35.9466 131.222 36.6399 130.731 37.3012C130.262 37.9626 129.782 38.5066 129.291 38.9332C128.8 39.3599 128.342 39.5732 127.915 39.5732ZM127.051 32.0852C127.456 31.8292 127.862 31.5092 128.267 31.1252C128.672 30.7412 129.014 30.3039 129.291 29.8132C129.568 29.3226 129.707 28.8319 129.707 28.3412C129.707 28.0852 129.579 27.9039 129.323 27.7972C129.067 27.6692 128.843 27.5946 128.651 27.5732C128.246 28.2346 127.904 28.9599 127.627 29.7492C127.371 30.5386 127.179 31.3172 127.051 32.0852ZM135.103 39.5732C134.527 39.5732 134.079 39.3172 133.759 38.8052C133.46 38.2932 133.257 37.6746 133.151 36.9492C133.044 36.2026 132.991 35.5092 132.991 34.8692C132.991 34.5706 132.991 34.3039 132.991 34.0692C133.012 33.8132 133.033 33.5999 133.055 33.4292H132.959C132.703 33.4292 132.575 33.3332 132.575 33.1412C132.617 33.0346 132.692 32.9492 132.799 32.8852C132.927 32.7999 133.044 32.7466 133.151 32.7252C133.257 31.7866 133.46 30.8266 133.759 29.8452C134.057 28.8639 134.463 27.9786 134.975 27.1892V26.9972C134.975 26.7839 135.103 26.6559 135.359 26.6132C135.465 26.5066 135.572 26.3892 135.679 26.2612C135.807 26.1119 135.945 26.0372 136.095 26.0372C136.265 26.0372 136.393 26.1119 136.479 26.2612C136.585 26.3892 136.596 26.5279 136.511 26.6772C136.916 26.7626 137.279 26.9332 137.599 27.1892C137.94 27.4239 138.111 27.7759 138.111 28.2452C138.111 28.8639 137.876 29.5039 137.407 30.1652C136.959 30.8052 136.415 31.3919 135.775 31.9252C135.156 32.4372 134.591 32.8212 134.079 33.0772C134.015 33.5892 133.972 34.1119 133.951 34.6452C133.951 35.1572 133.951 35.6692 133.951 36.1812C133.951 36.4372 133.961 36.7572 133.983 37.1412C134.025 37.5252 134.121 37.8666 134.271 38.1652C134.441 38.4639 134.719 38.6132 135.103 38.6132C135.508 38.6132 135.903 38.4319 136.287 38.0692C136.692 37.7066 137.076 37.2479 137.439 36.6932C137.823 36.1172 138.175 35.5199 138.495 34.9012C138.815 34.2826 139.092 33.6959 139.327 33.1412C139.561 32.5866 139.732 32.1599 139.839 31.8612C139.881 31.7546 139.935 31.6586 139.999 31.5732C140.063 31.4666 140.159 31.4132 140.287 31.4132C140.457 31.4132 140.543 31.5199 140.543 31.7332C140.543 32.0746 140.425 32.5652 140.191 33.2052C139.956 33.8239 139.636 34.4959 139.231 35.2212C138.847 35.9466 138.409 36.6399 137.919 37.3012C137.449 37.9626 136.969 38.5066 136.479 38.9332C135.988 39.3599 135.529 39.5732 135.103 39.5732ZM134.239 32.0852C134.644 31.8292 135.049 31.5092 135.455 31.1252C135.86 30.7412 136.201 30.3039 136.479 29.8132C136.756 29.3226 136.895 28.8319 136.895 28.3412C136.895 28.0852 136.767 27.9039 136.511 27.7972C136.255 27.6692 136.031 27.5946 135.839 27.5732C135.433 28.2346 135.092 28.9599 134.815 29.7492C134.559 30.5386 134.367 31.3172 134.239 32.0852ZM140.754 39.7012C140.605 39.7012 140.487 39.6479 140.402 39.5412C140.338 39.4132 140.306 39.2746 140.306 39.1252C140.306 37.9306 140.37 36.7359 140.498 35.5412C140.647 34.3252 140.722 33.1199 140.722 31.9252C140.722 31.7972 140.711 31.5519 140.69 31.1892C140.69 30.8052 140.669 30.3999 140.626 29.9732C140.605 29.5252 140.562 29.1306 140.498 28.7892C140.455 28.4266 140.391 28.2026 140.306 28.1172C140.221 28.0532 140.135 27.9786 140.05 27.8932C139.986 27.8079 139.954 27.7012 139.954 27.5732C139.954 27.4452 140.007 27.3492 140.114 27.2852C140.242 27.1999 140.37 27.1572 140.498 27.1572C140.861 27.1572 141.117 27.3279 141.266 27.6692C141.437 27.9892 141.543 28.3839 141.586 28.8532C141.65 29.3226 141.682 29.7706 141.682 30.1972C141.682 32.2026 141.618 34.2186 141.49 36.2452C141.575 36.0106 141.746 35.5946 142.002 34.9972C142.258 34.3999 142.567 33.7279 142.93 32.9812C143.293 32.2346 143.666 31.5199 144.05 30.8372C144.455 30.1332 144.829 29.5572 145.17 29.1092C145.511 28.6399 145.789 28.4052 146.002 28.4052C146.301 28.4052 146.514 28.5972 146.642 28.9812C146.791 29.3439 146.866 29.6426 146.866 29.8772C146.866 30.8586 146.813 31.8399 146.706 32.8212C146.621 33.8026 146.578 34.7946 146.578 35.7972C146.578 35.9252 146.589 36.1706 146.61 36.5332C146.653 36.8746 146.717 37.2052 146.802 37.5252C146.909 37.8239 147.069 37.9732 147.282 37.9732C147.453 37.9732 147.677 37.7812 147.954 37.3972C148.231 37.0132 148.519 36.5652 148.818 36.0532C149.117 35.5199 149.383 35.0186 149.618 34.5492C149.853 34.0799 150.013 33.7492 150.098 33.5572C150.119 33.5146 150.141 33.4719 150.162 33.4292C150.183 33.3652 150.215 33.3332 150.258 33.3332C150.365 33.3332 150.429 33.4186 150.45 33.5892C150.471 33.7386 150.482 33.8346 150.482 33.8772C150.482 34.0906 150.365 34.4639 150.13 34.9972C149.895 35.5306 149.597 36.0959 149.234 36.6932C148.893 37.2906 148.53 37.8026 148.146 38.2292C147.783 38.6559 147.453 38.8692 147.154 38.8692C146.727 38.8692 146.407 38.6986 146.194 38.3572C146.002 38.0159 145.874 37.6319 145.81 37.2052C145.746 36.7572 145.714 36.3839 145.714 36.0852C145.714 35.3812 145.746 34.6772 145.81 33.9732C145.895 33.2692 145.938 32.5652 145.938 31.8612C145.938 31.7972 145.927 31.6372 145.906 31.3812C145.906 31.1252 145.895 30.8799 145.874 30.6452C145.853 30.4106 145.799 30.2932 145.714 30.2932C145.501 30.2932 145.223 30.5599 144.882 31.0932C144.562 31.6266 144.21 32.2986 143.826 33.1092C143.463 33.9199 143.101 34.7626 142.738 35.6372C142.375 36.4906 142.055 37.2586 141.778 37.9412C141.522 38.6239 141.341 39.0826 141.234 39.3172C141.191 39.4026 141.127 39.4879 141.042 39.5732C140.978 39.6586 140.882 39.7012 140.754 39.7012ZM148.438 43.2852C147.777 43.2852 147.446 42.9652 147.446 42.3252C147.446 42.1119 147.574 41.8559 147.83 41.5572C148.086 41.2586 148.364 40.9706 148.662 40.6932C148.961 40.4372 149.185 40.2559 149.334 40.1492C149.441 39.8719 149.516 39.6159 149.558 39.3812C149.622 39.1466 149.676 38.8906 149.718 38.6132C149.868 37.6746 150.134 36.7252 150.518 35.7652C150.902 34.7839 151.286 33.8666 151.67 33.0132C151.137 32.7359 150.7 32.3732 150.358 31.9252C150.038 31.4559 149.878 30.9119 149.878 30.2932C149.878 30.1439 149.91 29.8986 149.974 29.5572C150.038 29.1946 150.145 29.0132 150.294 29.0132C150.486 29.0132 150.582 29.1732 150.582 29.4932C150.582 29.8132 150.582 30.0372 150.582 30.1652C150.582 30.6132 150.721 31.0186 150.998 31.3812C151.297 31.7439 151.628 32.0212 151.99 32.2132C153.1 29.8026 154.433 27.4879 155.99 25.2692C157.548 23.0506 159.244 20.9919 161.078 19.0932C161.782 18.3466 162.529 17.7279 163.318 17.2372C164.108 16.7466 165.025 16.5012 166.07 16.5012C166.817 16.5012 167.404 16.7466 167.83 17.2372C168.278 17.7066 168.502 18.3039 168.502 19.0292C168.502 19.3066 168.47 19.5732 168.406 19.8292C167.98 21.5999 167.329 23.2532 166.454 24.7892C165.601 26.3039 164.513 27.6906 163.19 28.9492C162.422 29.6746 161.526 30.3999 160.502 31.1252C159.5 31.8292 158.433 32.4159 157.302 32.8852C156.193 33.3546 155.084 33.5892 153.974 33.5892C153.74 33.5892 153.505 33.5786 153.27 33.5572C153.036 33.5146 152.812 33.4506 152.598 33.3652C152.172 34.3679 151.777 35.3706 151.414 36.3732C151.052 37.3759 150.764 38.4212 150.55 39.5092C152.193 38.5066 153.974 37.7812 155.894 37.3332C157.814 36.8852 159.734 36.6612 161.654 36.6612C162.166 36.6612 162.753 36.7572 163.414 36.9492C164.076 37.1199 164.641 37.3972 165.11 37.7812C165.601 38.1652 165.846 38.6879 165.846 39.3492C165.846 39.3919 165.825 39.5306 165.782 39.7652C165.761 39.9999 165.718 40.1386 165.654 40.1812C165.484 39.9679 165.366 39.7652 165.302 39.5732C165.004 38.8052 164.534 38.3252 163.894 38.1332C163.254 37.9199 162.55 37.8132 161.782 37.8132C160.097 37.8132 158.326 37.9839 156.47 38.3252C154.636 38.6452 152.972 39.2426 151.478 40.1172C151.329 40.2026 151.169 40.2772 150.998 40.3412C150.849 40.4266 150.689 40.5012 150.518 40.5652C150.454 40.9279 150.348 41.3226 150.198 41.7492C150.049 42.1759 149.836 42.5386 149.558 42.8372C149.281 43.1359 148.908 43.2852 148.438 43.2852ZM153.91 32.7572C154.913 32.7572 155.937 32.5119 156.982 32.0212C158.049 31.5092 159.062 30.9012 160.022 30.1972C160.982 29.4932 161.804 28.8212 162.486 28.1812C163.745 26.9866 164.78 25.6746 165.59 24.2452C166.401 22.8159 167.009 21.2586 167.414 19.5732C167.436 19.5092 167.446 19.4452 167.446 19.3812C167.446 19.3172 167.446 19.2532 167.446 19.1892C167.446 18.8266 167.361 18.4319 167.19 18.0052C167.041 17.5572 166.732 17.3332 166.262 17.3332C165.537 17.3332 164.737 17.6212 163.862 18.1972C163.009 18.7732 162.124 19.5412 161.206 20.5012C160.31 21.4399 159.425 22.4852 158.55 23.6372C157.697 24.7679 156.897 25.9092 156.15 27.0612C155.404 28.2132 154.753 29.2799 154.198 30.2612C153.644 31.2212 153.228 31.9999 152.95 32.5972C153.057 32.6612 153.217 32.7039 153.43 32.7252C153.644 32.7466 153.804 32.7572 153.91 32.7572ZM168.131 40.4692C167.768 40.4692 167.501 40.2879 167.331 39.9252C167.16 39.5839 167.053 39.1892 167.011 38.7412C166.968 38.2932 166.947 37.9519 166.947 37.7172C166.947 36.9066 167.021 36.0532 167.171 35.1572C167.32 34.2399 167.512 33.3866 167.747 32.5972C167.853 32.2346 168.045 31.7119 168.323 31.0292C168.6 30.3252 168.931 29.6106 169.315 28.8852C169.72 28.1599 170.147 27.5519 170.595 27.0612C171.064 26.5492 171.533 26.2932 172.003 26.2932C172.365 26.2932 172.76 26.4532 173.187 26.7732C173.613 27.0932 173.827 27.4452 173.827 27.8292C173.827 27.9786 173.773 28.1066 173.667 28.2132C173.688 28.1919 173.741 28.1812 173.827 28.1812C174.232 28.1812 174.435 28.3946 174.435 28.8212C174.435 29.3119 174.36 29.8986 174.211 30.5812C174.083 31.2639 173.944 31.9892 173.795 32.7572C173.645 33.5039 173.571 34.2292 173.571 34.9332C173.571 35.1892 173.592 35.4986 173.635 35.8612C173.677 36.2026 173.773 36.5119 173.923 36.7892C174.093 37.0666 174.36 37.2052 174.723 37.2052C175.064 37.2052 175.427 37.0239 175.811 36.6612C176.195 36.2986 176.568 35.8506 176.931 35.3172C177.293 34.7839 177.635 34.2506 177.955 33.7172C178.275 33.1839 178.541 32.7359 178.755 32.3732C178.989 32.0106 179.149 31.8292 179.235 31.8292C179.384 31.8292 179.459 31.9252 179.459 32.1172C179.459 32.3732 179.341 32.7466 179.107 33.2372C178.893 33.7066 178.605 34.2292 178.243 34.8052C177.88 35.3599 177.475 35.9039 177.027 36.4372C176.6 36.9492 176.163 37.3759 175.715 37.7172C175.288 38.0372 174.904 38.1972 174.563 38.1972C174.008 38.1972 173.581 37.9732 173.283 37.5252C173.005 37.0559 172.813 36.5012 172.707 35.8612C172.621 35.2212 172.579 34.6239 172.579 34.0692C172.579 33.8772 172.579 33.6959 172.579 33.5252C172.579 33.3546 172.589 33.2052 172.611 33.0772C172.483 33.3759 172.301 33.8239 172.067 34.4212C171.832 34.9972 171.555 35.6372 171.235 36.3412C170.936 37.0239 170.605 37.6852 170.243 38.3252C169.901 38.9439 169.549 39.4559 169.187 39.8612C168.824 40.2666 168.472 40.4692 168.131 40.4692ZM168.387 39.1252C168.664 39.1252 168.973 38.8692 169.315 38.3572C169.656 37.8452 170.008 37.1946 170.371 36.4052C170.755 35.5946 171.117 34.7306 171.459 33.8132C171.8 32.8959 172.109 32.0319 172.387 31.2212C172.685 30.3892 172.931 29.7066 173.123 29.1732C173.315 28.6186 173.443 28.3199 173.507 28.2772L173.315 28.3092C173.165 28.3092 173.048 28.2346 172.963 28.0852C172.877 27.9146 172.771 27.7546 172.643 27.6052C172.515 27.4559 172.301 27.3812 172.003 27.3812C171.619 27.3812 171.245 27.6052 170.883 28.0532C170.52 28.5012 170.168 29.0452 169.827 29.6852C169.507 30.3039 169.229 30.9119 168.995 31.5092C168.781 32.1066 168.632 32.5546 168.547 32.8532C168.12 34.3252 167.907 35.8399 167.907 37.3972C167.907 37.4826 167.907 37.6746 167.907 37.9732C167.928 38.2506 167.971 38.5172 168.035 38.7732C168.12 39.0079 168.237 39.1252 168.387 39.1252ZM179.392 40.5652C179.136 40.5652 178.933 40.3306 178.784 39.8612C178.656 39.3919 178.549 38.8372 178.464 38.1972C178.4 37.5359 178.357 36.9172 178.336 36.3412C178.336 35.7652 178.336 35.3706 178.336 35.1572C178.336 33.5999 178.464 31.9359 178.72 30.1652C178.997 28.3732 179.392 26.6132 179.904 24.8852C180.416 23.1572 181.024 21.5999 181.728 20.2132C181.877 19.9359 182.091 19.5519 182.368 19.0612C182.667 18.5706 182.997 18.1332 183.36 17.7492C183.723 17.3439 184.075 17.1412 184.416 17.1412C184.715 17.1412 184.928 17.2479 185.056 17.4612C185.205 17.6532 185.28 17.8879 185.28 18.1652C185.28 18.5492 185.109 18.7412 184.768 18.7412C184.619 18.7412 184.459 18.7092 184.288 18.6452C184.117 18.7306 183.915 18.9226 183.68 19.2212C183.467 19.4986 183.264 19.7866 183.072 20.0852C182.88 20.3839 182.731 20.6292 182.624 20.8212C181.557 22.9119 180.725 25.1626 180.128 27.5732C179.531 29.9839 179.232 32.3732 179.232 34.7412C179.232 34.9972 179.232 35.2639 179.232 35.5412C179.232 35.7972 179.243 36.0639 179.264 36.3412C179.349 35.9572 179.52 35.4132 179.776 34.7092C180.053 33.9839 180.384 33.2159 180.768 32.4052C181.152 31.5732 181.568 30.7839 182.016 30.0372C182.485 29.2906 182.955 28.6826 183.424 28.2132C183.915 27.7226 184.384 27.4772 184.832 27.4772C185.195 27.4772 185.451 27.6052 185.6 27.8612C185.771 28.0959 185.877 28.3839 185.92 28.7252C185.963 29.0666 185.984 29.3652 185.984 29.6212C185.984 30.0479 185.92 30.6346 185.792 31.3812C185.664 32.1279 185.472 32.9279 185.216 33.7812C184.981 34.6132 184.683 35.4132 184.32 36.1812C183.957 36.9279 183.541 37.5466 183.072 38.0372C182.603 38.5279 182.091 38.7732 181.536 38.7732C181.195 38.7732 180.907 38.6772 180.672 38.4852C180.459 38.2932 180.288 38.0479 180.16 37.7492C180.075 38.1546 180.011 38.5066 179.968 38.8052C179.947 39.0826 179.936 39.4346 179.936 39.8612C179.936 40.0106 179.893 40.1599 179.808 40.3092C179.723 40.4799 179.584 40.5652 179.392 40.5652ZM181.248 37.9732C181.696 37.9732 182.112 37.7492 182.496 37.3012C182.901 36.8319 183.253 36.2452 183.552 35.5412C183.872 34.8372 184.139 34.1012 184.352 33.3332C184.565 32.5439 184.725 31.8186 184.832 31.1572C184.96 30.4746 185.024 29.9519 185.024 29.5892V29.4612C185.024 29.2692 185.003 29.0879 184.96 28.9172C184.917 28.7466 184.789 28.6612 184.576 28.6612C184.299 28.6612 183.989 28.8746 183.648 29.3012C183.307 29.7279 182.955 30.2719 182.592 30.9332C182.229 31.5732 181.899 32.2452 181.6 32.9492C181.301 33.6319 181.056 34.2719 180.864 34.8692C180.672 35.4452 180.576 35.8612 180.576 36.1172C180.576 36.2666 180.576 36.4906 180.576 36.7892C180.597 37.0879 180.651 37.3652 180.736 37.6212C180.843 37.8559 181.013 37.9732 181.248 37.9732Z" fill="black"/>
</g>
<g filter="url(#filter1_i_1201_540)">
<path d="M133.94 72.1249C132.66 72.1249 131.54 71.9489 130.58 71.5969C129.636 71.2289 128.9 70.6769 128.372 69.9409C127.86 69.2049 127.604 68.2769 127.604 67.1569V54.3409H124.796V53.7409H133.1V54.3409H130.82V67.1329C130.82 68.6209 131.164 69.6849 131.852 70.3249C132.54 70.9649 133.484 71.2849 134.684 71.2849C135.964 71.2849 136.98 70.9409 137.732 70.2529C138.484 69.5649 138.86 68.5249 138.86 67.1329V54.3409H136.34V53.7409H142.172V54.3409H139.652V67.1329C139.652 68.8449 139.172 70.1089 138.212 70.9249C137.268 71.7249 135.844 72.1249 133.94 72.1249ZM156.796 72.1249L146.332 55.4449H146.236V71.2369H148.876V71.8369H142.66V71.2369H145.3V54.3409H142.66V53.7409H149.164L156.508 65.4049H156.604V54.3409H154.204V53.7409H159.94V54.3409H157.54V72.1249H156.796ZM171.585 71.4769L167.169 58.2769H167.073L166.905 57.5809L168.057 53.4529H168.777L174.801 71.4769H171.585ZM159.729 71.8369V71.2369H165.489V71.8369H159.729ZM164.409 66.1729V65.5729H172.185V66.1729H164.409ZM168.705 71.8369V71.2369H176.937V71.8369H168.705ZM161.793 71.4769L168.057 53.4529H168.777L167.313 57.5809L162.585 71.4769H161.793ZM183.358 72.1249C182.494 72.1249 181.75 72.0049 181.126 71.7649C180.518 71.5249 179.918 71.1729 179.326 70.7089L178.462 71.8369H177.862V66.7969H178.486C178.678 67.5649 178.974 68.3009 179.374 69.0049C179.774 69.6929 180.31 70.2609 180.982 70.7089C181.67 71.1569 182.526 71.3809 183.55 71.3809C184.462 71.3809 185.214 71.2129 185.806 70.8769C186.414 70.5249 186.862 70.0849 187.15 69.5569C187.454 69.0129 187.606 68.4529 187.606 67.8769C187.606 67.3649 187.494 66.9169 187.27 66.5329C187.062 66.1489 186.75 65.8209 186.334 65.5489C185.918 65.2609 185.43 65.0129 184.87 64.8049C184.31 64.5969 183.678 64.4129 182.974 64.2529C181.822 63.9809 180.878 63.5969 180.142 63.1009C179.422 62.6049 178.886 62.0049 178.534 61.3009C178.182 60.5809 178.006 59.7489 178.006 58.8049C178.006 57.6369 178.262 56.6609 178.774 55.8769C179.286 55.0769 179.958 54.4769 180.79 54.0769C181.622 53.6609 182.51 53.4529 183.454 53.4529C184.222 53.4529 184.886 53.5649 185.446 53.7889C186.022 53.9969 186.606 54.3329 187.198 54.7969L187.822 53.7409H188.422V58.6369L187.822 58.6609C187.438 57.1409 186.87 56.0129 186.118 55.2769C185.366 54.5409 184.446 54.1729 183.358 54.1729C182.702 54.1729 182.086 54.3089 181.51 54.5809C180.95 54.8529 180.502 55.2209 180.166 55.6849C179.83 56.1329 179.662 56.6529 179.662 57.2449C179.662 57.7409 179.766 58.1569 179.974 58.4929C180.182 58.8129 180.478 59.0849 180.862 59.3089C181.246 59.5329 181.694 59.7249 182.206 59.8849C182.734 60.0449 183.31 60.2129 183.934 60.3889C185.086 60.6929 186.046 61.0929 186.814 61.5889C187.582 62.0689 188.158 62.6929 188.542 63.4609C188.942 64.2129 189.142 65.1489 189.142 66.2689C189.142 68.0769 188.638 69.5089 187.63 70.5649C186.638 71.6049 185.214 72.1249 183.358 72.1249Z" fill="black"/>
</g>
<defs>
<filter id="filter0_i_1201_540" x="88" y="1.4043" width="107" height="66.3384" filterUnits="userSpaceOnUse" color-interpolation-filters="sRGB">
<feFlood flood-opacity="0" result="BackgroundImageFix"/>
<feBlend mode="normal" in="SourceGraphic" in2="BackgroundImageFix" result="shape"/>
<feColorMatrix in="SourceAlpha" type="matrix" values="0 0 0 0 0 0 0 0 0 0 0 0 0 0 0 0 0 0 127 0" result="hardAlpha"/>
<feOffset dy="4"/>
<feGaussianBlur stdDeviation="2"/>
<feComposite in2="hardAlpha" operator="arithmetic" k2="-1" k3="1"/>
<feColorMatrix type="matrix" values="0 0 0 0 0 0 0 0 0 0 0 0 0 0 0 0 0 0 0.25 0"/>
<feBlend mode="normal" in2="shape" result="effect1_innerShadow_1201_540"/>
</filter>
<filter id="filter1_i_1201_540" x="104" y="37.8369" width="107" height="58" filterUnits="userSpaceOnUse" color-interpolation-filters="sRGB">
<feFlood flood-opacity="0" result="BackgroundImageFix"/>
<feBlend mode="normal" in="SourceGraphic" in2="BackgroundImageFix" result="shape"/>
<feColorMatrix in="SourceAlpha" type="matrix" values="0 0 0 0 0 0 0 0 0 0 0 0 0 0 0 0 0 0 127 0" result="hardAlpha"/>
<feOffset dy="4"/>
<feGaussianBlur stdDeviation="2"/>
<feComposite in2="hardAlpha" operator="arithmetic" k2="-1" k3="1"/>
<feColorMatrix type="matrix" values="0 0 0 0 0 0 0 0 0 0 0 0 0 0 0 0 0 0 0.25 0"/>
<feBlend mode="normal" in2="shape" result="effect1_innerShadow_1201_540"/>
</filter>
<clipPath id="clip0_1201_540">
<rect width="88" height="92.9607" fill="white" transform="translate(0 0.311523)"/>
</clipPath>
</defs>
</svg>
