<svg width="261" height="262" viewBox="0 0 261 262" fill="none" xmlns="http://www.w3.org/2000/svg">
<g clip-path="url(#clip0_838_6198)">
<path d="M119.424 1.4502H142.539V2.17529H145.428L149.28 2.41698L150.484 2.90038L154.818 3.38377L157.708 4.10887L160.838 4.59226L162.042 5.07566L164.69 5.55905L166.857 6.28414L168.783 7.00924L171.432 7.49263L173.358 8.21772L177.21 9.9096L182.267 11.6015L197.195 19.0941L199.121 20.5443L202.251 22.2362L204.418 23.6864L206.826 25.3782L208.993 26.8284V27.3118L209.956 27.7952L212.123 29.2454L213.808 30.6956V31.179L214.771 31.6624L216.457 33.1126L217.901 34.0793L219.587 35.5295L220.55 36.4963V36.9797H221.031V37.4631H221.513V37.9465L222.476 38.4299V38.9133L223.439 39.3967V39.8801L224.402 40.3635V40.8469H224.884V41.3303H225.365L226.81 43.0221L230.903 47.131L231.625 48.5812L234.515 51.7233L235.719 53.6568L237.886 56.3155L238.608 57.524L240.293 60.1827L241.738 62.3579L243.423 64.7749L245.35 68.1587L246.794 70.5757L249.443 75.6513L251.369 80.0019L253.295 84.8358L254.74 89.1864L255.944 91.845L256.425 94.7454L257.148 96.4373L257.87 98.6125L258.351 101.513L258.833 102.238L259.315 106.589L259.796 106.83L260.037 107.797L260.278 112.148L261 112.631V150.094L260.518 150.336L260.278 151.061L260.037 154.928L259.555 156.137L259.315 156.378L258.833 160.729L258.351 161.454L257.87 164.596L257.388 165.321L256.907 167.496L256.425 168.705L255.944 171.363L254.499 174.264L253.054 179.098L251.61 182.24L250.165 185.865L248.239 189.732L246.072 193.841L244.868 195.533L243.423 198.434L241.979 200.367L241.016 201.817L239.33 204.476L238.126 205.926L237.645 207.135L236.682 208.343L235.478 209.552L234.756 211.002L232.829 213.177L231.866 214.144H231.385L230.903 215.836L217.179 229.613L215.975 230.096L213.086 232.755L211.16 234.446L209.956 235.172L207.789 237.105L206.344 237.83L204.177 239.28L200.806 241.456L197.676 243.389L193.101 245.806L183.47 250.64L180.581 251.849L177.933 252.815L174.803 254.024L169.746 255.716L164.69 257.166L160.115 258.375L155.059 259.341L150.244 259.825L150.003 260.55H111.72L110.997 259.825L106.663 259.341L99.9216 257.891L94.6245 256.441L89.0867 254.749L85.7159 253.541L84.0304 252.815L79.9373 251.365L75.8441 249.432L71.7509 247.256L66.2131 244.598L64.2869 243.389L63.083 242.423L59.7122 240.731L58.2675 239.522L56.8229 238.797L55.3782 237.589L53.9336 236.863L52.0074 235.172V234.688L50.322 234.205L46.9511 230.821L45.7472 229.854L44.3026 229.129L31.06 215.836L30.3376 214.386L27.6891 211.485L26.9668 210.518L26.2445 209.31L24.0775 206.651L22.6328 204.476L20.9474 201.817L18.2989 197.95L16.8542 195.05L15.4096 193.116L13.4834 189.249L10.5941 183.207L9.39022 179.823L8.42712 177.406L6.98247 173.297L5.7786 170.397L5.05627 167.496L3.8524 163.871L3.13007 160.729L2.40775 156.378L1.9262 154.445L1.44465 150.577L0.9631 149.127L0.722325 142.601L0 142.36V120.365L0.48155 120.124L0.722325 119.157L0.9631 114.565L1.68542 110.939L2.16697 107.072L2.64852 105.622L3.13007 102.238L4.33395 97.8875L5.53782 94.0203L6.26015 91.1199L7.46402 88.4613L9.14945 83.3856L10.1125 81.452L11.0756 78.5517L14.928 70.8174L16.3727 68.4004L17.095 67.4336L18.5397 64.5332L19.9843 62.5996L21.429 60.4244L23.1144 57.7657L24.7998 55.3487L26.726 53.1734L27.4483 51.7233L30.3376 48.5812L31.06 47.131L33.7085 44.4723L34.19 43.7472H34.6716L35.1531 42.7805H35.6347L36.1162 41.8137H36.5978L37.0793 40.8469H37.5609L38.0424 39.8801H38.524L39.0055 38.9133H39.4871L39.9686 37.9465H40.4502L40.9317 36.9797H41.4133L41.6541 36.2546L43.5803 34.5627L45.0249 33.3543L46.9511 31.9041L48.6365 30.2122L50.8035 28.5203L52.2482 27.5535L54.6559 25.6199L58.2675 23.203L60.9161 21.5111L63.5646 20.0609L65.7316 18.6107L70.5471 16.1937L74.6402 14.0185L80.178 11.3598L81.8635 10.8764L83.3081 10.1513L85.4751 9.66791L85.9566 9.18451L87.6421 8.45942L90.2906 7.73433L91.0129 7.25093L94.143 6.76754L94.8653 6.28414L97.0323 5.80075L97.7546 5.31735L100.885 4.83396L101.607 4.35056L105.7 3.86717L107.145 3.38377L111.72 3.14208L111.96 2.41698L119.184 2.17529L119.424 1.4502Z" fill="#E9ECED"/>
<path d="M214.771 146.71H222.476L228.014 147.194L236.441 148.402L241.979 149.611L243.905 150.094L243.183 152.753L241.979 158.554L241.016 163.871L239.33 169.43L236.922 176.198L234.274 182.24L232.829 184.899L230.181 189.974L228.736 192.15L227.291 194.567L223.921 199.884L221.754 202.543L220.068 204.718L217.901 207.376L215.253 210.277L213.086 212.694L211.16 214.386L209.474 216.319L206.585 218.978L202.732 222.12L200.084 224.054L197.676 225.746L193.583 228.646L188.286 231.788L183.23 234.688L177.451 237.347L174.562 238.555L169.265 240.489L160.597 243.148L156.263 244.115L146.873 245.565L139.168 246.29L135.075 246.531H130.259L118.943 245.806L112.683 245.081L105.459 243.873L98.7177 241.939L92.2167 239.764L87.642 238.072L83.7896 236.138L79.2149 233.722L75.3625 231.546L72.9548 230.338L70.7878 228.888L67.4169 226.712L64.2869 224.537L61.6383 222.603L59.7121 220.912L57.3044 218.736L55.8597 217.528V217.044L54.8966 216.561L51.5258 213.177L49.5996 211.485L46.9511 208.585L44.3025 205.443L41.8948 202.059V201.576H41.4133L38.7647 197.709L37.0793 195.292L34.19 190.216L30.5784 182.965L28.893 179.098L27.4483 175.714L24.559 167.496L24.3182 164.838L29.3745 165.563L36.357 167.013L42.1356 168.705L48.6365 170.88L51.5258 172.089L58.749 174.747L65.9723 177.164L72.9548 178.615L85.4751 180.306L88.6051 180.548H94.6245L100.885 180.065L112.683 178.615L119.424 177.406L124.24 175.956L128.092 174.989L133.871 172.572L142.057 168.705L146.873 166.53L150.725 164.596L154.337 162.662L158.189 160.729L162.041 159.037L168.783 156.137L174.803 153.961L182.267 151.544L187.804 150.336L192.861 149.369L195.509 148.402L200.084 147.677L205.622 147.194L214.771 146.71Z" fill="#151515"/>
<path d="M119.424 1.4502H142.539V2.17529H145.428L149.28 2.41698L150.484 2.90038L154.818 3.38377L157.708 4.10887L160.838 4.59226L162.042 5.07566L164.69 5.55905L166.857 6.28414L168.783 7.00924L171.432 7.49263L173.358 8.21772L177.21 9.9096L182.267 11.6015L197.195 19.0941L199.121 20.5443L202.251 22.2362L204.418 23.6864L206.826 25.3782L208.993 26.8284V27.3118L209.956 27.7952L212.123 29.2454L213.808 30.6956V31.179L214.771 31.6624L216.457 33.1126L217.901 34.0793L219.587 35.5295L220.55 36.4963V36.9797H221.031V37.4631H221.513V37.9465L222.476 38.4299V38.9133L223.439 39.3967V39.8801L224.402 40.3635V40.8469H224.884V41.3303H225.365L226.81 43.0221L230.903 47.131L231.625 48.5812L234.515 51.7233L235.719 53.6568L237.886 56.3155L238.608 57.524L240.293 60.1827L241.738 62.3579L243.423 64.7749L245.35 68.1587L246.794 70.5757L249.443 75.6513L251.369 80.0019L253.295 84.8358L254.74 89.1864L255.944 91.845L256.425 94.7454L257.148 96.4373L257.87 98.6125L258.351 101.513L258.833 102.238L259.315 106.589L259.796 106.83L260.037 107.797L260.278 112.148L261 112.631V150.094L260.518 150.336L260.278 151.061L260.037 154.928L259.555 156.137L259.315 156.378L258.833 160.729L258.351 161.454L257.87 164.596L257.388 165.321L256.907 167.496L256.425 168.705L255.944 171.363L254.499 174.264L253.054 179.098L251.61 182.24L250.165 185.865L248.239 189.732L246.072 193.841L244.868 195.533L243.423 198.434L241.979 200.367L241.016 201.817L239.33 204.476L238.126 205.926L237.645 207.135L236.682 208.343L235.478 209.552L234.756 211.002L232.829 213.177L231.866 214.144H231.385L230.903 215.836L217.179 229.613L215.975 230.096L213.086 232.755L211.16 234.446L209.956 235.172L207.789 237.105L206.344 237.83L204.177 239.28L200.806 241.456L197.676 243.389L193.101 245.806L183.47 250.64L180.581 251.849L177.933 252.815L174.803 254.024L169.746 255.716L164.69 257.166L160.115 258.375L155.059 259.341L150.244 259.825L150.003 260.55H111.72L110.997 259.825L106.663 259.341L99.9216 257.891L94.6245 256.441L89.0867 254.749L85.7159 253.541L84.0304 252.815L79.9373 251.365L75.8441 249.432L71.7509 247.256L66.2131 244.598L64.2869 243.389L63.083 242.423L59.7122 240.731L58.2675 239.522L56.8229 238.797L55.3782 237.589L53.9336 236.863L52.0074 235.172V234.688L50.322 234.205L46.9511 230.821L45.7472 229.854L44.3026 229.129L31.06 215.836L30.3376 214.386L27.6891 211.485L26.9668 210.518L26.2445 209.31L24.0775 206.651L22.6328 204.476L20.9474 201.817L18.2989 197.95L16.8542 195.05L15.4096 193.116L13.4834 189.249L10.5941 183.207L9.39022 179.823L8.42712 177.406L6.98247 173.297L5.7786 170.397L5.05627 167.496L3.8524 163.871L3.13007 160.729L2.40775 156.378L1.9262 154.445L1.44465 150.577L0.9631 149.127L0.722325 142.601L0 142.36V120.365L0.48155 120.124L0.722325 119.157L0.9631 114.565L1.68542 110.939L2.16697 107.072L2.64852 105.622L3.13007 102.238L4.33395 97.8875L5.53782 94.0203L6.26015 91.1199L7.46402 88.4613L9.14945 83.3856L10.1125 81.452L11.0756 78.5517L14.928 70.8174L16.3727 68.4004L17.095 67.4336L18.5397 64.5332L19.9843 62.5996L21.429 60.4244L23.1144 57.7657L24.7998 55.3487L26.726 53.1734L27.4483 51.7233L30.3376 48.5812L31.06 47.131L33.7085 44.4723L34.19 43.7472H34.6716L35.1531 42.7805H35.6347L36.1162 41.8137H36.5978L37.0793 40.8469H37.5609L38.0424 39.8801H38.524L39.0055 38.9133H39.4871L39.9686 37.9465H40.4502L40.9317 36.9797H41.4133L41.6541 36.2546L43.5803 34.5627L45.0249 33.3543L46.9511 31.9041L48.6365 30.2122L50.8035 28.5203L52.2482 27.5535L54.6559 25.6199L58.2675 23.203L60.9161 21.5111L63.5646 20.0609L65.7316 18.6107L70.5471 16.1937L74.6402 14.0185L80.178 11.3598L81.8635 10.8764L83.3081 10.1513L85.4751 9.66791L85.9566 9.18451L87.6421 8.45942L90.2906 7.73433L91.0129 7.25093L94.143 6.76754L94.8653 6.28414L97.0323 5.80075L97.7546 5.31735L100.885 4.83396L101.607 4.35056L105.7 3.86717L107.145 3.38377L111.72 3.14208L111.96 2.41698L119.184 2.17529L119.424 1.4502ZM126.407 15.7103L119.424 16.1937L110.756 17.4022L101.848 19.3358L96.7915 21.0277L91.2537 22.9613L87.6421 24.4114L82.1042 27.0701L78.0111 29.0037L72.9548 31.9041L68.8616 34.5627L63.5646 38.1882L58.9899 41.572L53.6928 45.9225L50.8035 48.5812L48.155 50.7565L46.9511 51.965L44.3026 54.8653L41.4133 58.0074L38.7648 61.3912L36.8386 63.8081L34.4308 67.1919L32.0231 70.8174L29.3745 75.6513L28.1707 77.3432L26.726 81.2103L24.7998 84.8358L22.3921 91.6033L20.7066 96.4373L19.5028 100.304L18.5397 103.93L16.3727 113.839L15.4096 118.915L14.6873 128.583V143.81L15.4096 152.753L17.095 162.421L19.0212 170.155L20.2251 173.297L21.9105 178.373L24.0775 183.448L25.2814 186.349L27.6891 190.699L28.893 193.116L31.7823 197.95L33.4677 200.367L36.357 204.476L38.7648 207.618L41.4133 211.002L44.3026 214.144L45.988 216.077L51.5258 221.637L53.452 223.328L55.1375 225.02L58.5083 227.679L67.1762 233.963L69.1024 235.172L74.1587 238.072L78.9742 240.731L83.7897 242.906L86.1974 244.114L89.5683 245.323L94.143 247.256L98.9585 248.465L105.459 250.399L110.275 251.365L120.147 252.574L124.481 253.057L132.185 253.299L138.927 253.057L144.706 252.332L154.818 251.124L161.078 249.673L168.302 247.498L173.117 245.806L179.137 243.389L182.026 242.181L189.731 238.314L193.583 236.138L196.232 234.446L200.806 231.304L203.214 229.613L205.381 228.162L207.789 226.229L209.956 224.537L213.808 220.911L215.975 218.978L216.938 217.769V217.286L217.901 216.803L219.827 214.869L221.513 212.935L223.198 211.244L225.847 207.86L228.255 204.959L229.699 202.542L230.662 201.334L232.829 197.95L234.515 195.292L236.682 191.183L237.886 189.249L239.33 185.865L240.534 183.448L243.905 174.989L247.035 164.838L249.202 153.236L249.684 149.127L250.165 139.701V131.242L249.684 124.716L249.202 119.64L248.72 117.948L248.239 114.806L246.794 106.105L244.146 97.1624L242.942 93.5369L239.33 84.8358L236.441 78.7934L233.552 73.7177L230.903 69.3672L228.736 66.2251L226.81 63.5664L224.643 60.6661L221.754 57.2823L220.068 55.3487L217.901 52.9317L214.53 49.3063L210.919 45.9225L208.511 43.7472L206.103 41.8137L201.047 37.9465L197.195 35.2878L194.065 33.3543L190.694 31.4207L186.36 29.0037L184.434 28.0369L176.97 24.6531L173.358 23.4447L170.95 22.4779L165.412 20.786L159.393 19.0941L148.799 17.1605L137.723 15.952L133.871 15.7103H126.407Z" fill="#151515"/>
<path d="M89.5682 72.9927H99.44L102.329 74.6846L103.292 75.893L103.533 76.6181V80.2436L102.329 82.1772L99.9216 83.3857L98.2361 83.8691V96.679L98.4769 129.792V153.72L97.7546 156.62L96.0692 160.729L93.6614 165.079L91.2537 167.255L88.6051 168.947L85.7158 170.155L81.3819 171.122H77.0479L72.2324 170.155L69.1024 168.463L65.7315 165.563L62.6014 161.696L60.6752 157.828L59.7121 155.653L59.4714 154.203V83.8691L59.2306 83.6274L56.8228 83.144L55.1374 81.6938L54.1743 79.7602V77.5849L55.3782 75.168L57.0636 73.7178L58.2675 73.2344H82.5858L89.5682 72.9927Z" fill="#E9ECED"/>
<path d="M119.424 1.4502H142.539V2.17529H145.428L149.28 2.41698L150.484 2.90038L154.818 3.38377L157.708 4.10887L160.838 4.59226L162.042 5.07566L164.69 5.55905L166.857 6.28414L168.783 7.00924L171.432 7.49263L173.358 8.21772L177.21 9.9096L182.267 11.6015L197.195 19.0941L199.121 20.5443L202.251 22.2362L204.418 23.6864L206.826 25.3782L208.993 26.8284V27.3118L209.956 27.7952L212.123 29.2454L213.808 30.6956V31.179L214.771 31.6624L216.457 33.1126L217.901 34.0793L219.587 35.5295L220.55 36.4963V36.9797H221.031V37.4631H221.513V37.9465L222.476 38.4299V38.9133L223.439 39.3967V39.8801L224.402 40.3635V40.8469H224.884V41.3303H225.365L226.81 43.0221L230.903 47.131L231.625 48.5812L234.515 51.7233L235.719 53.6568L237.886 56.3155L238.608 57.524L240.293 60.1827L241.738 62.3579L243.423 64.7749L245.35 68.1587L246.794 70.5757L249.443 75.6513L251.369 80.0019L253.295 84.8358L254.74 89.1864L255.944 91.845L256.425 94.7454L257.148 96.4373L257.87 98.6125L258.351 101.513L258.833 102.238L259.315 106.589L259.796 106.83L260.037 107.797L260.278 112.148L261 112.631V150.094L260.518 150.336L260.278 151.061L260.037 154.928L259.555 156.137L259.315 156.378L258.833 160.729L258.351 161.454L257.87 164.596L257.388 165.321L256.907 167.496L256.425 168.705L255.944 171.363L254.499 174.264L253.054 179.098L251.61 182.24L250.165 185.865L248.239 189.732L246.072 193.841L244.868 195.533L243.423 198.434L241.979 200.367L241.016 201.817L239.33 204.476L238.126 205.926L237.645 207.135L236.682 208.343L235.478 209.552L234.756 211.002L232.829 213.177L231.866 214.144H231.385L230.903 215.836L217.179 229.613L216.216 229.371L218.864 227.196L221.513 224.295L224.884 220.911L226.569 218.978L228.977 216.319L230.662 214.386L233.311 211.244L235.237 208.343L237.645 204.959L239.089 202.784L241.016 200.125L243.423 196.017L244.868 193.116L246.554 190.458L247.998 187.315L249.684 183.69L251.369 178.856L252.332 176.923L254.018 171.847L255.944 164.596L257.148 157.587L257.87 153.236L258.833 143.81L259.074 139.459V132.45L258.592 123.991L257.629 115.29L255.944 104.655L254.018 97.8875L252.091 91.3616L250.887 88.4613L249.684 85.3192L245.831 77.1015L242.46 70.5757L240.053 66.4668L237.886 63.3247L235.959 60.4244L233.311 56.5572L230.903 53.4151L228.014 50.0314L225.847 47.6144L223.68 44.9557L219.346 40.6052L216.697 38.4299L213.808 35.7712L207.066 30.4539L203.936 28.2786L199.843 25.6199L195.991 23.4447L192.62 21.5111L188.768 19.5775L181.544 16.4354L176.006 14.5019L172.154 13.0517L168.061 11.8432L164.69 10.8764L161.56 9.9096L157.467 9.18451L151.207 8.21772L143.02 7.25093L137.242 6.76754H127.37L117.257 7.73433L108.349 8.94281L101.848 10.393L98.2362 11.6015L92.4576 13.2934L85.2343 15.952L76.5664 19.8192L71.0286 22.7196L64.2869 26.8284L60.6753 29.2454L56.1006 32.6292L52.2482 35.7712L49.8404 37.7048L47.4327 39.8801L45.5065 41.572L43.3395 43.7472L41.4133 45.4391L40.4502 46.6476L37.0793 50.0314L34.9124 52.69L33.2269 54.6236L30.8192 57.7657L29.1338 59.941L25.2814 65.5L23.1144 69.1255L20.9474 72.9926L19.0212 76.8598L15.6504 84.1107L13.4834 89.9114L11.798 94.9871L10.1125 100.304L8.6679 106.105L7.46402 112.873L6.7417 116.498L6.26015 122.299L6.01937 126.891V144.535L6.50092 152.753L8.6679 163.871L10.1125 169.672L11.5572 173.539L13.0018 178.373L15.6504 185.382L17.8173 190.216L20.2251 194.808L22.6328 199.159L24.7998 202.542L27.4483 206.651L29.6153 209.552L32.2638 212.935L35.6347 217.044L39.4871 221.153L41.6541 223.57L45.5065 227.437L48.155 229.613L49.8404 231.304L52.4889 233.48L56.1006 236.138L59.7122 238.555L64.2869 241.456L68.1393 243.873L72.4733 246.29L78.0111 248.948L83.0673 251.124L85.4751 252.09L88.3644 253.299L94.3838 255.474L97.7546 256.441L103.774 257.649L110.516 259.1L115.09 259.825L119.424 260.308V260.55H111.72L110.997 259.825L106.663 259.341L99.9216 257.891L94.6245 256.441L89.0867 254.749L85.7159 253.541L84.0304 252.815L79.9373 251.365L75.8441 249.432L71.7509 247.256L66.2131 244.598L64.2869 243.389L63.083 242.423L59.7122 240.731L58.2675 239.522L56.8229 238.797L55.3782 237.589L53.9336 236.863L52.0074 235.172V234.688L50.322 234.205L46.9511 230.821L45.7472 229.854L44.3026 229.129L31.06 215.836L30.3376 214.386L27.6891 211.485L26.9668 210.518L26.2445 209.31L24.0775 206.651L22.6328 204.476L20.9474 201.817L18.2989 197.95L16.8542 195.05L15.4096 193.116L13.4834 189.249L10.5941 183.207L9.39022 179.823L8.42712 177.406L6.98247 173.297L5.7786 170.397L5.05627 167.496L3.8524 163.871L3.13007 160.729L2.40775 156.378L1.9262 154.445L1.44465 150.577L0.9631 149.127L0.722325 142.601L0 142.36V120.365L0.48155 120.124L0.722325 119.157L0.9631 114.565L1.68542 110.939L2.16697 107.072L2.64852 105.622L3.13007 102.238L4.33395 97.8875L5.53782 94.0203L6.26015 91.1199L7.46402 88.4613L9.14945 83.3856L10.1125 81.452L11.0756 78.5517L14.928 70.8174L16.3727 68.4004L17.095 67.4336L18.5397 64.5332L19.9843 62.5996L21.429 60.4244L23.1144 57.7657L24.7998 55.3487L26.726 53.1734L27.4483 51.7233L30.3376 48.5812L31.06 47.131L33.7085 44.4723L34.19 43.7472H34.6716L35.1531 42.7805H35.6347L36.1162 41.8137H36.5978L37.0793 40.8469H37.5609L38.0424 39.8801H38.524L39.0055 38.9133H39.4871L39.9686 37.9465H40.4502L40.9317 36.9797H41.4133L41.6541 36.2546L43.5803 34.5627L45.0249 33.3543L46.9511 31.9041L48.6365 30.2122L50.8035 28.5203L52.2482 27.5535L54.6559 25.6199L58.2675 23.203L60.9161 21.5111L63.5646 20.0609L65.7316 18.6107L70.5471 16.1937L74.6402 14.0185L80.178 11.3598L81.8635 10.8764L83.3081 10.1513L85.4751 9.66791L85.9566 9.18451L87.6421 8.45942L90.2906 7.73433L91.0129 7.25093L94.143 6.76754L94.8653 6.28414L97.0323 5.80075L97.7546 5.31735L100.885 4.83396L101.607 4.35056L105.7 3.86717L107.145 3.38377L111.72 3.14208L111.96 2.41698L119.184 2.17529L119.424 1.4502Z" fill="#E9ECED"/>
<path d="M137.723 93.2954H139.89L141.576 94.0205L142.298 95.4707V97.8877L141.335 99.5795L140.853 100.063L140.612 102.722V152.995L140.131 156.862L139.409 159.037L137.242 162.904L135.075 165.321L132.908 166.771L129.296 168.463L125.203 169.43H123.277L120.147 167.497L117.017 164.838L115.09 162.663L112.923 159.279L112.201 157.104L111.719 154.203V131.967L111.479 105.864L111.238 100.305L109.793 99.0961L109.552 96.9209L110.275 94.7456L111.238 93.7788L135.556 93.5371L137.723 93.2954Z" fill="#151515"/>
<path d="M178.655 47.3726H181.303L183.23 48.3393L184.915 50.2729L185.878 52.2065L186.36 54.1401V60.1825L185.397 62.5995L183.952 65.0165L183.23 65.4999L182.989 67.6751V82.9021L183.23 89.1862H184.915L185.397 87.9777L188.045 82.177L189.008 80.7268L191.898 77.5847H192.379L192.62 76.8596L195.75 74.6844L200.325 72.5091L202.973 72.0257H205.14L206.344 72.7508L207.066 73.9593L206.826 76.1346L206.103 79.0349L203.695 83.6272L201.529 87.0109L199.362 89.6696L196.954 91.3615L194.064 93.0534L190.212 94.2619L186.119 95.2286L183.952 96.6788L183.23 97.6456V117.223H184.674L185.637 116.256L187.082 111.906L188.767 108.764L191.175 106.105L193.824 103.93L199.602 101.271L202.01 100.546L204.899 100.304L206.585 101.029L207.066 101.513L207.307 103.205L206.344 107.314L204.418 111.181L202.492 114.323L199.121 117.948L196.713 119.64L192.62 121.332L189.49 122.057L186.6 122.782L184.674 124.232L183.47 126.166L183.23 127.374V145.502L182.989 147.435L180.822 147.677H177.933L177.451 146.952L177.21 141.151V125.683L176.488 124.474L174.321 122.54L169.987 122.057L166.857 121.574L163.005 119.64L160.115 116.981L157.948 114.564L156.022 111.422L154.096 107.072L153.374 104.413V101.754L154.577 100.304L156.504 100.063L160.115 100.546L164.931 102.48L167.82 104.413L171.191 107.797L173.117 110.939L175.766 116.015L176.729 117.223H177.21V96.6788L176.006 96.1954L174.802 95.2286L173.599 94.7453L168.783 94.0202L165.653 92.8117L162.282 90.3947L161.56 89.9113V89.4279L160.597 88.9445L157.948 85.5607L156.744 83.8689L155.3 80.4851L153.855 75.8929L153.614 73.4759L154.337 72.2674L155.3 71.784H157.467L161.56 72.7508L167.338 75.6512L169.746 77.8264L171.913 80.2434L174.08 84.1106L175.284 87.2526L176.247 89.1862L177.451 89.4279L177.21 67.1917L176.729 65.9833L175.284 64.2914L173.839 61.391L173.358 58.0072L173.599 54.1401L174.802 50.7563L176.247 48.8227L177.451 47.856L178.655 47.3726Z" fill="#151515"/>
<path d="M89.5682 72.9927H99.44L102.329 74.6846L103.292 75.893L103.533 76.6181V80.2436L102.329 82.1772L99.9216 83.3857L98.2361 83.8691V96.679L98.4769 129.792V153.72L97.7546 156.62L96.0692 160.729L93.6614 165.079L91.2537 167.255L88.6051 168.947L85.7158 170.155L81.3819 171.122H77.0479L72.2324 170.155L69.1024 168.463L65.7315 165.563L62.6014 161.696L60.6752 157.828L59.7121 155.653L59.4714 154.203V83.8691L59.2306 83.6274L56.8228 83.144L55.1374 81.6938L54.1743 79.7602V77.5849L55.3782 75.168L57.0636 73.7178L58.2675 73.2344H82.5858L89.5682 72.9927ZM67.6577 81.9355L66.9354 82.9023V94.7454L66.6946 99.8211V102.721L67.4169 103.447L72.2324 102.963H77.0479L77.2887 103.93V106.589L77.0479 107.072H67.6577L66.9354 106.83L66.6946 107.072L66.4538 113.114L65.9723 118.673L65.4907 134.867V141.151L65.7315 152.511L66.4538 155.411L68.1393 158.312L70.3062 160.971L72.9548 162.904L76.0848 164.113L78.011 164.596H80.6596L83.7896 163.629L86.6789 162.179L88.3644 160.487L90.2906 157.345L91.2537 155.17L91.7352 152.995V128.583L91.2537 104.172L91.0129 82.1772L90.2906 81.9355L86.9197 82.1772H70.547L67.6577 81.9355Z" fill="#151515"/>
<path d="M131.704 100.062H133.871V119.882L134.112 127.374L134.352 139.217V154.444L133.389 156.861L131.222 159.762L129.055 161.212L126.407 162.179H124.721L121.832 160.729L119.906 158.795L118.461 156.378L117.98 153.719V100.788L118.221 100.304L131.704 100.062Z" fill="#E9ECED"/>
<path d="M69.1023 115.29L80.6595 115.531L86.9197 115.773L89.0867 116.015V150.819L88.6051 153.719L86.9197 156.862L84.9935 158.795L81.6226 160.487L80.4188 160.729H78.2518L75.1217 159.762L72.714 158.07L70.7878 155.895L69.5839 153.236L69.1023 149.611L68.8616 142.118V115.531L69.1023 115.29Z" fill="#151515"/>
<path d="M124.721 124.958H131.463V130.275L131.222 153.236L130.741 154.928L128.814 156.862L126.647 157.828L124.721 157.345L122.554 155.895L121.35 154.203L121.11 153.236L120.869 134.867V125.441L124.721 124.958Z" fill="#151515"/>
<path d="M155.3 188.524H158.189L160.356 189.249L162.764 190.941L164.69 193.116L165.412 194.808L165.653 196.017V199.642L164.69 202.542L163.245 204.476L160.838 206.168L159.152 206.893H154.818L151.929 205.443L150.003 203.509L148.558 200.609L148.077 199.159V195.775L149.04 193.116L150.484 190.941L153.374 189.007L155.3 188.524Z" fill="#E9ECED"/>
<path d="M80.6596 48.5811H84.512L86.9198 49.7895L88.6052 51.4814L90.0499 54.1401L90.2906 55.1069V57.7656L89.3275 60.1825L87.8829 62.1161L85.7159 63.5663L83.5489 64.5331H81.6227L79.4558 63.5663L77.5296 62.1161L76.0849 60.1825L75.3626 58.4906L75.1218 55.5903L75.6034 53.1733L77.048 50.7563L78.0111 50.2729V49.7895L79.6965 48.8228L80.6596 48.5811Z" fill="#151515"/>
<path d="M123.036 62.8413H125.684L127.37 63.5664L129.296 65.2583L130.5 67.1919L130.741 67.917V70.5756L129.778 72.7509L128.333 74.6845L126.407 75.893H122.795L120.869 74.9262L119.184 73.2343L118.22 70.5756V68.1587L118.943 65.9834L120.628 64.0498L122.073 63.083L123.036 62.8413Z" fill="#151515"/>
<path d="M108.349 221.878L111.479 222.362L112.683 223.329L113.646 225.262V227.921L112.683 229.854L110.997 231.305L110.275 231.546H107.626L105.7 230.338L104.015 228.646L103.774 228.163V225.987L104.978 223.812L106.663 222.362L108.349 221.878Z" fill="#E9ECED"/>
<path d="M136.76 219.461H139.168L141.094 220.428L142.298 221.878L142.78 223.329V225.02L141.817 226.954L139.89 228.646L138.927 229.129H137.242L135.316 228.163L133.63 226.229L133.389 225.746V223.57L134.593 221.153L135.797 219.945L136.76 219.461Z" fill="#E9ECED"/>
<path d="M196.232 170.88L197.917 171.122L199.843 172.33L200.806 173.539V175.714L199.362 177.889L197.435 179.339L195.268 178.856L193.583 176.922L193.342 176.197V173.78L194.065 172.33L195.268 171.363L196.232 170.88Z" fill="#E9ECED"/>
<path d="M174.802 213.902L176.969 214.386L178.655 215.836L179.136 217.286L178.896 219.703L177.21 221.637L175.766 222.12L174.08 221.878L172.154 220.186L171.432 218.011L171.913 216.078L173.117 214.627L174.802 213.902Z" fill="#E9ECED"/>
<path d="M85.9566 213.419H87.8828L89.3274 214.144L90.7721 215.836V218.736L89.809 220.428L88.3643 221.637H86.4381L84.7527 220.428L83.7896 218.978L83.5488 218.253V216.078L84.5119 214.627L85.9566 213.419Z" fill="#E9ECED"/>
<path d="M198.88 191.424L200.325 191.666L201.529 192.875L202.732 194.808V196.258L201.529 198.192L200.325 199.4L199.121 199.642L197.435 198.917L196.232 197.467L195.75 196.258L195.991 194.083L196.954 192.633L198.158 191.666L198.88 191.424Z" fill="#E9ECED"/>
<path d="M77.2888 196.983L78.7334 197.225L80.1781 198.917L80.6596 200.125V201.817L79.6965 203.509L78.2519 204.234L76.0849 203.751L74.3995 201.817L74.1587 199.884L74.881 198.434L76.0849 197.467L77.2888 196.983Z" fill="#E9ECED"/>
<path d="M110.997 196.5L113.164 196.742L114.85 198.192L115.091 198.675V200.609L114.127 202.059L112.924 203.268H110.997L109.793 202.542L108.83 201.092L108.59 199.159L109.312 197.708L110.275 196.742L110.997 196.5Z" fill="#E9ECED"/>
<path d="M71.5103 91.3618H75.8442L76.8073 92.812L76.5665 94.0205L75.6034 94.7456L73.6772 95.229L69.8248 95.4707L68.621 94.9873L68.1394 93.7788V92.5703L70.0656 91.6035L71.5103 91.3618Z" fill="#151515"/>
<path d="M58.0267 195.05L59.7121 195.292L61.3976 197.225V199.159L60.4345 200.609L59.7121 201.334L58.2675 201.576L57.0636 200.851L55.8597 199.159V197.708L57.3044 195.533L58.0267 195.05Z" fill="#E9ECED"/>
<path d="M181.785 188.282L183.47 188.524L184.674 189.732V192.149L183.47 194.083L182.507 194.566L180.822 194.325L179.137 192.391L178.896 190.941L180.581 189.007L181.785 188.282Z" fill="#E9ECED"/>
<path d="M125.203 206.893L126.648 207.135L127.852 208.102L128.333 209.068V211.002L127.37 212.452L126.648 212.936H124.962L123.758 211.727L123.277 210.76V209.068L124.481 207.135L125.203 206.893Z" fill="#E9ECED"/>
<path d="M175.766 253.057L176.488 253.299L173.599 254.507L169.746 255.716L164.69 257.166L160.115 258.374L155.059 259.341L150.243 259.825L150.003 260.55H142.057V260.308L146.873 259.825L157.467 257.891L166.135 255.957L174.803 253.299L175.766 253.057Z" fill="#E9ECED"/>
<path d="M77.2887 127.616L78.7333 127.858L79.9372 129.066V131L78.4925 132.692L76.8071 132.934L75.1217 131.725L74.6401 131V129.791L76.0848 128.1L77.2887 127.616Z" fill="#E9ECED"/>
<path d="M77.7702 144.293H79.2149L80.178 145.502L80.4188 145.985V147.919L79.4557 149.369L78.7333 149.852L77.2887 149.611L75.844 148.402L75.6033 147.194L76.3256 145.744L77.7702 144.293Z" fill="#E9ECED"/>
<path d="M178.173 203.026H179.618L180.822 203.993L181.304 206.168L180.581 207.376L179.859 207.86L178.173 207.618L176.488 206.168V204.718L177.692 203.268L178.173 203.026Z" fill="#E9ECED"/>
<path d="M160.597 222.362L162.282 222.604L163.005 224.054L162.523 225.504L161.801 225.987H160.115L158.911 224.779L159.152 223.087L159.634 222.604L160.597 222.362Z" fill="#E9ECED"/>
<path d="M216.938 174.264L218.383 174.505L218.864 175.23L218.624 176.922L217.901 178.131H216.457L215.975 176.922V175.472L216.938 174.264Z" fill="#D7DADB"/>
</g>
<defs>
<clipPath id="clip0_838_6198">
<rect width="261" height="262" fill="white"/>
</clipPath>
</defs>
</svg>
